<?xml version="1.0" standalone="no"?>
<!DOCTYPE svg PUBLIC "-//W3C//DTD SVG 1.1//EN" "http://www.w3.org/Graphics/SVG/1.1/DTD/svg11.dtd">
<svg xmlns="http://www.w3.org/2000/svg">
  <defs>
    <font id="Fraunces" horiz-adv-x="1054">
      <font-face font-family="Fraunces Light" units-per-em="2000" panose-1="0 0 0 0 0 0 0 0 0 0" ascent="1956" descent="-510" alphabetic="0" />
      <glyph unicode=" " glyph-name="gid1" horiz-adv-x="463" />
      <glyph unicode="!" glyph-name="gid63" horiz-adv-x="593" d="M296,1468q49,0 71.5-26.5T390,1373q0-18-1.5-37.5T384,1297L330,456q-3-23-10.5-34T297,411t-23,11t-12,34l-53,842q-3,18-4.5,37.5T203,1373q0,42 22,68.5t71,26.5ZM297-14q-32,0-59,16.5t-43,44T179,105q0,34 16,61.5t42.5,43T297,225t59.5-15.5t42-43T414,105q0-31-15.5-58.5t-42-44T297-14Z" />
      <glyph unicode="&quot;" glyph-name="gid114" horiz-adv-x="596" d="M457,956q-12,0-21.5,9.5T423,993l-35,427q-6,61 12.5,93t60.5,32q41,0 59.5-30.5T531,1420L490,993q-2-19-10.5-28T457,956Zm-324,0q-12,0-21.5,9.5T99,993L64,1420q-6,61 12.5,93t60.5,32q41,0 59.5-30.5T207,1420L166,993q-2-19-10.5-28T133,956Z" />
      <glyph unicode="#" glyph-name="gid129" horiz-adv-x="1273" d="M497,689q-9-35-22.5-85.5t-29-109T414,373T382.5,249T353,134T328,38Q314-11 276-4q-22,4-28.5,22.5T247,60q10,37 25,87.5T305.5,258t38,122.5t38,122.5T415,615t25,90q10,36 23,86t28,109t30.5,122t31,124t29,115t24.5,95q13,49 51,42q23-4 29.5-22t-0.5-43q-10-36-24.5-87T629,1135t-37-122.5T554.5,890t-33-112T497,689ZM680,954q33,0 81,1t103.5,3t112,3.5t107,3T1172,966q25,0 40.5-10t15.5-29t-15.5-29.5T1171,887q-33,0-82,1.5T984,892t-113,4t-106.5,3T680,900t-85-1t-107.5-3t-114-4T268,889t-83-1q-25,0-40.5,10T128,927q0,20 16,30t41,10q38,0 89-1.5T381.5,962T494,958t104.5-3.5T680,954ZM597,466q-35,0-85-1t-107.5-3t-114-4t-106-3T102,454q-25,0-41,10.5T45,494t16,29t41,10q38,0 88.5-1.5T298,528t113-4t104.5-3t81.5-1t81,1t103.5,2.5t112,3.5t107,3t87.5,2q26,0 41.5-10t15.5-29t-15.5-29T1088,453q-33,0-82,1.5T901,458t-113,4t-107,3t-84,1ZM664,38Q650-11 612-4q-21,4-28,22.5T584,60q9,37 24.5,87.5T642,258t37.5,122.5t38,122.5t34,112T777,705q10,36 23,86t27.5,109t30,122t31,123.5T918,1260t24,96q14,49 52,42q23-4 29-22t-1-43q-9-36-24-87t-33-111t-37-122.5T891,890T858,778t-25-89q-9-35-22.5-85.5T782,494.5T751,373T719,249T689,134T664,38Z" />
      <glyph unicode="$" glyph-name="gid131" horiz-adv-x="1155" d="M595,1391q129,0 222-39t143.5-106t50.5-152q0-42-21-66.5T936,1003q-34,0-57.5,20.5T855,1077v51q0,97-71,159.5T588,1350q-95,0-165-36t-108.5-99T276,1068q0-68 31-126.5t105.5-107T617,747q148-46 237.5-105.5t130-130T1025,360q0-104-53.5-183.5t-153-125T583,6Q452,6 350,49T190,163T132,318q0,44 22.5,71T213,416q32,0 52.5-21T286,337V278q0-97 79-163T582,49q139,0 223.5,69T890,309q0,107-74,183.5T544,629Q393,676 305,735T179.5,866T142,1024q0,101 56.5,184T357,1341t238,50Zm17-678H561q0,214-4,353t-9.5,223t-10,130.5T533,1496q0,28 16.5,42t39.5,14q22,0 38.5-14t16.5-43q0-28-5-74t-11.5-130.5t-11-223.5T612,713Zm-57-37h51q0-207 5-342t11.5-216.5t11-127T638-83t-16-42.5T583-140t-39.5,14.5T527-83q0,30 4.5,75.5t10,126.5T551,335t4,341Z" />
      <glyph unicode="%" glyph-name="gid136" horiz-adv-x="1390" d="M370,1424q138,0 215-96.5T662,1070q0-111-35-192T526,753T368,709q-141,0-217.5,96.5T74,1066q0,162 77.5,260T370,1424Zm174-361q0,162-45.5,238T368,1377t-130.5-75.5T192,1072q0-164 46-240t131-76q56,0 95,32t59.5,100T544,1063ZM784,790q-11-15-21.5-19T739,773q-13,7-13,19.5t8,28.5q17,30 41,75t51.5,97.5t57.5,109t58.5,110T997,1313t46,81q14,24 37.5,32t47.5-6q23-14 27.5-36t-11.5-47q-17-29-44.5-71.5t-61-94t-70-105T897.5,961t-64-95.5T784,790ZM612,605q11,16 22,20t23-2q13-7 13.5-20T662,575q-17-31-41-75.5T569.5,402T512,293T453.5,183t-54-101T353,2q-14-24-37.5-31.5T268-24q-23,13-27.5,35.5T252,58q17,29 44.5,72t61,94t70,105t71,106t64,96T612,605Zm412,87q138,0 215-96.5T1316,338q0-111-35-192T1180,21T1022-23Q881-23 804.5,73.5T728,334q0,162 77.5,260T1024,692Zm174-361q0,162-45.5,238T1022,645T891.5,569.5T846,340q0-164 46-240t131-76q56,0 95,32t59.5,100T1198,331Z" />
      <glyph unicode="&amp;" glyph-name="gid59" horiz-adv-x="1885" d="M1324-37q139,0 241,62.5t158,185T1779,510q0,212-70,402.5T1489,1256q-143,146-316,219t-385,73q-186,0-321.5-60.5T257.5,1315T184,1050q0-82 29.5-133T293,866q39,0 63.5,22.5T381,944t-10.5,55T346,1040t-24.5,44T311,1147q0,94 52,172.5t157.5,127T784,1495q204,0 365-71t294-208q150-155 212-338t62-377q0-155-46-256.5T1545.5,93T1365,43q-71,0-136.5,32.5T1095,178.5T949,361q-67,96-115.5,191.5T759,741.5T733,926q0,127 53,200t138,73q63,0 102-54.5t39-142.5q0-95-36-162T923.5,733T753,676l7-39q140,18 236.5,65t146,120.5T1192,992q0,75-32.5,132t-91,90T933,1247q-101,0-175.5-47.5T642,1069.5T601,881q0-96 25.5-192.5t75-196.5T824,284q77-112 151.5-183t159-104.5T1324-37ZM1048,186l31-29q161,103 240.5,209.5T1399,586q0,55-24,86.5T1314,704q-35,0-56.5-24.5T1236,620q0-24 8-43t16.5-39.5T1269,489q0-43-21-89.5T1178.5,301T1048,186ZM669,625v43q-162-20-267-74.5T245.5,457T194,274q0-143 95.5-225T556-33q85,0 157,19T849,40t126,83l-32,36q-75-56-151-88T622,39q-121,0-197.5,72.5T348,308q0,74 33,138T485.5,556.5T669,625Z" />
      <glyph unicode="&apos;" glyph-name="gid113" horiz-adv-x="273" d="M133,956q-12,0-21.5,9.5T99,993L64,1420q-6,61 12.5,93t60.5,32q41,0 59.5-30.5T207,1420L166,993q-2-19-10.5-28T133,956Z" />
      <glyph unicode="(" glyph-name="gid81" horiz-adv-x="655" d="M149,611q0,195 58,367.5t155.5,301T578,1471q42,19 55,0q6-9 1-21t-24-30q-98-83-171-207T326,936T286,611q0-171 40-324.5T439,9.5T610-197q19-18 24-29.5T633-248q-13-19-55,0Q460-185 362.5-57T207,243.5T149,611Z" />
      <glyph unicode=")" glyph-name="gid82" horiz-adv-x="655" d="M505,612q0-195-58-367.5T291.5-56.5T76-248q-42-19-55,0q-6,9-1,21t24,30q98,83 171,207T328,287t40,325q0,171-40,324.5t-113,277T44,1420q-19,18-24,29.5t1,21.5q13,19 55,0q118-63 215.5-191T447,979.5T505,612Z" />
      <glyph unicode="*" glyph-name="gid102" horiz-adv-x="1248" d="M648,1012H609q0,83-9,149t-20.5,117.5t-20.5,92t-9,72.5q0,94 78,94q37,0 57-23.5t20-70.5q0-32-8.5-72.5t-20-92t-20-117.5T648,1012Zm-14,19l-12-37q-79,26-144.5,38T359,1049t-95,9t-72,14q-89,29-65,102q12,35 40.5,46.5T240,1218q31-10 67-30.5t82-47t106-55T634,1031Zm-23-8l31-22q-48-67-79.5-125.5T510,768t-38-86.5T436,618q-54-76-118-31q-29,22-32,52.5T310,708q19,26 50,53.5t70.5,63t86,83.5T611,1023Zm0-23l31,23q50-68 95.5-116t86-83T895,761.5T945,708q55-75-8-121q-30-21-60.5-14T820,618q-20,26-36.5,63.5t-38,86T692,874.5T611,1000Zm11,29q79,26 138.5,54.5t106,55.5t82,48t67.5,31q88,28 112-44q12-35-4.5-61t-60.5-41q-30-10-71.5-14t-94.5-9.5t-118.5-18T634,993l-12,36Z" />
      <glyph unicode="+" glyph-name="gid119" horiz-adv-x="1102" d="M139,682q0,17 13.5,27T184,719H920q17,0 29.5-10T962,682q0-18-12.5-28.5T920,643H183q-17,0-30.5,10.5T139,682ZM547,295q-17,0-27,13.5T510,340v736q0,17 10,29.5t27,12.5q18,0 28.5-12.5T586,1076V339q0-17-10.5-30.5T547,295Z" />
      <glyph unicode="," glyph-name="gid66" horiz-adv-x="448" d="M220,4q-54,0-81,32t-27,77q0,51 33.5,85T229,232q56,0 94.5-47T362,28q0-76-22.5-133t-58-95.5t-74-59T138-285q-18-2-27.5,3T100-267q-1,11 7.5,19.5T141-229q47,18 79.5,48.5t50,67T288-40q0,22-10,33T240,4H220Z" />
      <glyph unicode="-" glyph-name="gid91" horiz-adv-x="843" d="M683,621q44,0 29-37l-20-49q-6-17-16.5-23.5T646,505H161q-44,0-29,38l19,49q8,18 17.5,23.5T197,621H683Z" />
      <glyph unicode="." glyph-name="gid65" horiz-adv-x="429" d="M215-14q-32,0-59,16.5t-43,44T97,105q0,34 16,61t43,43t59,16q33,0 59.5-16t42-43T332,105q0-31-15.5-58.5t-42-44T215-14Z" />
      <glyph unicode="/" glyph-name="gid87" horiz-adv-x="973" d="M518,601q-22-49-51.5-117t-63-147T335,174.5T265.5,9.5t-66-154T142-273q-12-24-33-32.5T63-303T31.5-270T36-223Q62-167 96.5-96.5T170.5,53T251,213t79.5,157.5t71,143T457,629t52.5,117.5T572,894t68.5,163t70,165t66,153.5T834,1504q12,24 33.5,33t45.5-2q25-12 32-34t-5-46q-25-56-60-127t-75-150t-80.5-160T645,860T573.5,717T518,601Z" />
      <glyph unicode="0" glyph-name="gid103" horiz-adv-x="1244" d="M627,1422q167,0 284-87t179-249.5T1152,696q0-224-66-385.5T899.5,62.5T616-24Q450-24 332.5,63.5t-179,250T92,703q0,224 66,385t186.5,247.5T627,1422ZM991,666q0,243-44,398T820.5,1293T620,1367q-112,0-194.5-74T298,1078T253,733q0-244 44-398.5t127-228T623,33q113,0 195.5,73T946,320.5T991,666Z" />
      <glyph unicode="1" glyph-name="gid104" horiz-adv-x="856" d="M155,1272H316q33,0 46.5-13.5T376,1207V138q0-29-18-45.5T308,72L145,56q-38-6-38-29q0-13 10.5-20T147,0H744q20,0 29,7t9,19q0,24-36,29L600,72q-36,5-51,21t-15,45V1399q0,41-34,41q-13,0-23-6.5T458,1410q-28-44-58.5-59.5T322,1335H155q-21,0-32.5-8T111,1304q0-16 11-24t33-8Z" />
      <glyph unicode="2" glyph-name="gid105" horiz-adv-x="1141" d="M221,188l-38,36L496,486Q629,595 706,685T815.5,860.5T848,1041q0,109-33.5,182.5t-95,110T576,1370q-136,0-201-68.5T310,1136v-81q0-46-23.5-70T225,961t-61,27.5T141,1067q0,93 52,174t152,131t244,50q139,0 232.5-49T963,1239.5t48-191.5q0-91-37-174T845,695.5T587,473L221,188ZM112,76q0,86 62.5,144T354,278q62,0 123-23t120.5-54T716,147t116-23q75,0 115,33.5T1012,266q5,14 14,19.5t19,3.5q12-1 18.5-10.5T1068,249q-14-100-46.5-160t-83-86.5T819-24Q764-24 717-8.5T625.5,40T531,126q-56,51-91.5,71T369,217q-42,0-64-32T278,76q-2-35-13-57.5T235-14T190-24q-31,0-54.5,26.5T112,76Z" />
      <glyph unicode="3" glyph-name="gid106" horiz-adv-x="1026" d="M427,740l-18,25q12,1 26.5,2t31,1.5T499,769q148,0 251.5-44.5T907,595.5T960,391q0-124-57.5-217.5T741.5,28T500-24Q367-24 274.5,16.5T133,124.5T84,275q0,54 26,83.5T176,388q38,0 57-24t19-67V217q0-87 66-137.5T508,30q86,0 153,38T767.5,179.5T807,360q0,174-84,260.5T457,707H394q-22,0-31.5,7T353,736q0,10 6.5,21T386,790l467,529l6-50H286q-30,0-46-11.5T217,1220l-30-125q-3-13-13-21.5t-25-8.5q-15,1-23.5,11t-6.5,30l28,243q3,25 20,38t49,13H927q22,0 32-6.5t10-19.5q0-10-8-23t-35-43L427,740Z" />
      <glyph unicode="4" glyph-name="gid107" horiz-adv-x="1122" d="M657,783q0,18 4.5,30.5T677,839l80,82q11,12 18.5,16t14.5,4q9,0 14.5-6t5.5-19l1-783q0-28 17-43t48-20l92-15q18-2 28-9.5T1006,27q0-13-10-20T966,0H497q-38,0-38,27q0,21 37,28l96,16q30,5 47.5,19.5T657,133V783Zm-83,288q27,30 37,50t10,50q0,22-7,40t-16.5,35T581,1281.5t-7,41.5q0,31 13,55t38,38t61,14q51,0 81.5-32.5T798,1308q0-30-10-62t-36.5-72T676,1079L106,396l-9,30H995q17,0 27.5-6.5T1033,396q0-30-39-30H88q-23,0-35,9.5T41,400q0,11 6,23t24,31l503,617Z" />
      <glyph unicode="5" glyph-name="gid108" horiz-adv-x="1086" d="M133,281q0,48 25,78t65,30q38,0 58-24.5T301,298V213q0-82 64.5-133.5T557,28q125,0 209.5,95T851,409q0,183-78.5,277.5T572,781q-60,0-113.5-21.5t-98.5-63T278,598q-12-16-25-24t-27-8q-20,0-29.5,10T187,604v771q0,26 14,40.5t43,14.5q18,0 38.5-8t61.5-35q39-23 84-43t102-32.5T657,1299q98,0 165.5,33T927,1429q14,16 24.5,19.5T972,1449q9-2 14-11.5t0-29.5q-19-77-67-131.5T799.5,1194T637,1166q-78,0-150,17.5T351,1231t-121,71l25,27V633l-24-8q44,67 100.5,116T456,816t146,26q123,0 213.5-53.5T955.5,641T1005,423q0-136-58-237T785,30.5T543-24Q417-24 324.5,17.5t-142,111T133,281Z" />
      <glyph unicode="6" glyph-name="gid109" horiz-adv-x="1130" d="M650,1422q112,0 192-39t123-103.5t43-140.5q0-53-22.5-81.5T920,1029q-42,0-63,24.5T836,1125v59q0,85-49,134t-153,49q-75,0-144.5-38t-124-121t-86-217.5T248,662q1-231 46.5-370T421,92T606,31q132,0 212,96.5T898,409q0,180-84,274T590,777q-90,0-167-45T299,609.5T249,436l-43,15q2,111 60,199T422.5,790T639,842q126,0 219-50t144-142.5T1053,429q0-135-57-237.5T838,32.5T601-24Q442-24 328,54.5t-175,229T91,652q-1,263 70.5,433.5T359,1339t291,83Z" />
      <glyph unicode="7" glyph-name="gid110" horiz-adv-x="967" d="M839,1287l31-27H219q-30,0-45-11t-22-38l-33-129q-3-13-13-21.5T82,1052q-16,1-24.5,11T51,1093l28,257q2,24 18,37t47,13H914q21,0 32.5-9t11.5-26q0-11-6-25t-27-44L629,803q-52-82-89.5-150T478,527T443,419.5T432,324q0-40 13-71t31-57t31-53.5T520,80q0-47-26-75.5T419-24q-58,0-93.5,49.5T290,179q0,89 25,179t76.5,192T525,777l314,510Z" />
      <glyph unicode="8" glyph-name="gid111" horiz-adv-x="1090" d="M542-24Q402-24 306,17.5t-146,116T110,306q0,76 40,147.5t118.5,127T462,663l20-27Q366,590 313,500T260,319q0-142 83-217T565,27q131,0 208,69t77,192q0,68-30.5,124.5t-104,104T512,605Q291,677 199,779t-92,245q0,115 57.5,205t162,142T571,1423q143,0 241-49.5T961,1240t51-187q0-98-45-181.5t-129-143T637,641l-26,25q75,36 132.5,92.5t90,129.5T866,1048q0,100-39.5,172T717,1331.5T554,1371q-88,0-156-38T291.5,1229T253,1077q0-81 29.5-148t105-122.5T602,705q215-69 308-166t93-213q0-106-56.5-184.5T786,19.5T542-24Z" />
      <glyph unicode="9" glyph-name="gid112" horiz-adv-x="1142" d="M501-23Q384-23 300,16.5t-128.5,104T127,260q0,54 22.5,82T215,370q42,0 63-24.5T299,274V215q0-84 53.5-133.5T517,32q100,0 186,69.5t139.5,226T895,745q0,229-45.5,366T724,1308t-183,60q-133,0-214.5-93.5T245,1000q0-176 84.5-267.5T553,641q91,0 167.5,44.5T844.5,807T894,979l43-12q-2-111-60-199.5t-156-140T504,576q-126,0-219,49T141,764T90,979q0,133 57,233t159.5,155.5T546,1423q158,0 271-77.5T991,1119t61-364q1-265-69.5-437.5T788,61T501-23Z" />
      <glyph unicode=":" glyph-name="gid67" horiz-adv-x="445" d="M222-14q-32,0-59,16.5t-43,44T104,105q0,34 16,61t43,43t59,16q33,0 59.5-16t42-43T339,105q0-31-15.5-58.5t-42-44T222-14Zm0,634q-32,0-59,16.5t-43,44T104,739q0,34 16,61t43,43t59,16q33,0 59.5-16t42-43T339,739q0-31-15.5-58.5t-42-44T222,620Z" />
      <glyph unicode=";" glyph-name="gid68" horiz-adv-x="464" d="M233,619q-32,0-59,16.5t-43,44T115,738q0,34 16,61t43,43t59,16q33,0 59.5-16t42-43T350,738q0-31-15.5-58.5t-42-44T233,619ZM224,4q-54,0-81,32t-27,77q0,51 33.5,85T233,232q56,0 94.5-47T366,28q0-76-22.5-133t-58-95.5t-74-59T142-285q-18-2-27.5,3T104-267q-1,11 7.5,19.5T145-229q47,18 79.5,48.5t50,67T292-40q0,22-10,33T244,4H224Z" />
      <glyph unicode="&lt;" glyph-name="gid125" horiz-adv-x="1014" d="M198,689V679l664,371q21,10 30.5,20.5T902,1091q0,13-8,20.5t-25,7.5q-14,0-28-5.5T806,1098L167,745q-26-12-39.5-27T114,684q0-20 13.5-35T167,623L809,268q20-9 34.5-14.5T873,248q16,0 24,7.5t7,19.5q0,10-9,21.5T866,317L198,689Z" />
      <glyph unicode="=" glyph-name="gid124" horiz-adv-x="1102" d="M147,857q0,17 13.5,27T192,894H928q17,0 29.5-10T970,857q0-18-12.5-28.5T928,818H191q-17,0-30.5,10.5T147,857Zm0-341q0,17 13.5,27T192,553H928q17,0 29.5-10T970,516q0-18-12.5-28.5T928,477H191q-17,0-30.5,10.5T147,516Z" />
      <glyph unicode="&gt;" glyph-name="gid126" horiz-adv-x="1014" d="M808,679v10L144,318q-21-10-30.5-20.5T104,277q0-13 8-20.5t25-7.5q14,0 28,5.5T200,270L839,623q26,12 39.5,27T892,684q0,20-13.5,35T839,745L197,1100q-20,9-34.5,14.5T133,1120q-16,0-24-7.5t-7-19.5q0-10 9-21.5t29-20.5L808,679Z" />
      <glyph unicode="?" glyph-name="gid61" horiz-adv-x="915" d="M379,665l10-233q2-17 10.5-26t23.5-9q14,0 22.5,8.5T457,432l8,224q3,35 13,52.5T513,735l59,23q147,56 209.5,146.5T844,1113q0,156-98.5,244.5T477,1446q-108,0-196.5-43.5t-140-114T89,1137q0-49 23.5-77.5T176,1031q42,0 67,29t24,77v64q0,83 50,136.5T472,1391q95,0 154.5-67T686,1123q0-109-41.5-185.5T491,806l-50-23q-40-19-53-46.5T379,665ZM423-14q-32,0-58.5,16.5T322,46t-16,59q0,34 16,61t42.5,43T423,225q34,0 60.5-16t42-43T541,105q0-32-15.5-59t-42-43.5T423-14Z" />
      <glyph unicode="@" glyph-name="gid98" horiz-adv-x="1701" d="M1065,503q-44,16-91.5,26.5T868,540q-102,0-161-46.5T648,368q0-77 46.5-119.5T812,206q74,0 139.5,36T1068,345l20-32q-59-81-144-128T764,138q-118,0-190,55T502,348t93,168t260,68q65,0 119.5-11T1075,544l-10-41Zm203-301q56,0 103.5,28.5T1454,314t54.5,135.5T1528,635q0,209-86.5,359.5T1208,1226t-329,81q-169,0-303-55.5t-228-157t-143-239T156,554q0-224 93.5-392.5T508-100.5T888-194q199,0 365,72.5T1536,87q14,15 25.5,17.5T1582,99q9-7 7-19t-16-29q-69-92-175.5-159.5T1160-213T886-250q-171,0-316,55.5T316.5-34.5T148.5,219T89,554q0,174 54.5,321.5t157,257.5T550,1303.5T881,1364q149,0 278.5-48.5t227-142.5t152-229.5T1593,636q0-150-42-262T1431,200t-185-62q-59,0-103,17t-68.5,50.5T1048,289l-6,3V778q0,94-46,143.5T864,971q-84,0-125-42t-41-95V781q0-34-23-52.5T619,710q-31,0-51.5,17.5T547,781q0,64 40.5,118t116,87T886,1019q93,0 157-29t98-83t34-131V301q0-49 25-74t68-25Z" />
      <glyph unicode="A" glyph-name="gid3" horiz-adv-x="1376" d="M342,544H943l8-64H330l12,64ZM416,26q0-12-9.5-19T377,0H71Q51,0 41.5,7T32,25q0,9 7,15T66,53l44,13q28,10 41,28.5T180,162L563,1286q10,29 3,41t-43,18q-27,5-38,12.5T474,1376t10,17.5t30,6.5H851q20,0 29.5-6.5T890,1377q0-12-10-19.5T843,1346q-30-5-36-14.5t2-32.5L1212,128q10-33 29.5-49T1299,56q25-5 33-12t8-18q0-12-10-19t-29-7H948q-19,0-29,7T909,26q0,10 8,17t26,10l83,10q26,4 28,19t-9,49L633,1335l25,9L260,168q-11-32-11-52.5T262,83t40-19l79-11q19-4 27-10t8-17Z" />
      <glyph unicode="B" glyph-name="gid4" horiz-adv-x="1292" d="M1233,339q0-148-128-243.5T734,0H156q-19,0-27.5,7T120,26q0,22 33,29l75,12q24,4 36.5,16.5T277,116V1284q0,20-12.5,32.5T228,1333l-75,12q-33,7-33,29q0,13 8.5,19.5T156,1400H605q177,0 299-50t185.5-138.5T1153,1006q0-99-53-179.5T940.5,698T672,650l65,23q154,0 265-43.5T1173,511t60-172ZM664,632H385v53H661q105,0 179.5,39t114,110.5T994,1002q0,101-45.5,178t-136,120T589,1343H434V135q0-39 27.5-58.5T546,57H706q122,0 202,36.5t119.5,101T1067,341q0,129-100.5,210T664,632Z" />
      <glyph unicode="C" glyph-name="gid5" horiz-adv-x="1375" d="M1300,335q0-62-36-127T1160.5,88T996-1T774-35Q565-35 414,58.5t-233,257T99,690q0,161 48.5,296T283,1221t206,154.5T748,1430q108,0 175.5-23t105-46.5T1083,1337q22,0 29.5,19.5t15,38.5t29.5,19q11,0 18.5-6.5T1188,1384l108-335q6-16-1.5-28t-23.5-13q-14-2-24.5,4.5T1229,1033q-57,118-126.5,192.5t-155,109T755,1369q-105,0-196-45.5T400.5,1194T295,993.5T257,734q0-211 74-362T531,141T815,61q162,0 272,72.5T1249,332q7,14 15,20t18,5q8-1 13-6t5-16Z" />
      <glyph unicode="D" glyph-name="gid6" horiz-adv-x="1527" d="M121,26q0,22 32,29l76,12q24,4 36.5,16.5T278,116V1284q0,20-12.5,32.5T229,1333l-76,12q-32,7-32,29q0,13 8.5,19.5T157,1400H599q188,0 341-54t263.5-152.5t170-233T1433,666q0-192-87-342.5t-253.5-237T686,0H157q-19,0-27.5,7T121,26ZM685,60q182,0 312,72.5t200,209T1267,672q0,151-48,273.5T1081,1156T864.5,1292T581,1340H434V135q0-38 25.5-56.5T539,60H685Z" />
      <glyph unicode="E" glyph-name="gid7" horiz-adv-x="1261" d="M375,725H749q62,0 85.5,23.5T863,840q2,16 8.5,24.5T891,876q25,5 33-28l74-277q4-16 0-26t-18-13q-12-3-23,2t-18,18q-23,47-42.5,71T852,655.5T790,664H375v61ZM121,1374q0,13 8.5,19.5T157,1400H919q26,0 43.5,11.5t32.5,22t33,10.5q17,0 26-8.5t15-30.5l75-279q4-15-1-25t-19-14q-15-3-27.5,3t-20.5,23q-32,75-58,120t-53.5,68T903,1331.5t-82,7.5H434V138q0-39 26-58t83-19H850q61,0 102.5,20.5t80,82.5T1120,351q6,14 15.5,19.5T1157,375q15-2 21-12.5t2-28.5L1103,4q-6-22-16.5-31.5T1058-37q-16,0-31.5,9T993-9.5T951,0H157q-19,0-27.5,7T121,26q0,22 32,29l76,12q24,4 36.5,16.5T278,116V1284q0,20-12.5,32.5T229,1333l-76,12q-32,7-32,29Z" />
      <glyph unicode="F" glyph-name="gid8" horiz-adv-x="1154" d="M856,1400q31,0 48.5,11t31.5,21.5t30,10.5q17,0 26-8.5t14-29.5l75-280q5-16-2-26.5t-21-12.5q-14-3-25,3t-19,23q-42,98-75,146.5T866.5,1323T767,1339H434V116q0-20 13-33t37-16L599,55q19-2 27-9t8-20q0-12-8.5-19T597,0H157q-19,0-27.5,7T121,26q0,22 32,29l76,12q24,4 36.5,16.5T278,116V1284q0,20-12.5,32.5T229,1333l-76,12q-32,7-32,29q0,13 8.5,19.5T157,1400H856ZM354,696H729q61,0 85.5,23.5T844,812q2,15 8.5,23.5T871,846q26,5 34-27l71-278q5-16 0.5-25T959,503q-13-3-23.5,2.5T917,524q-22,45-41.5,69.5t-43.5,33T771,635H354v61Z" />
      <glyph unicode="G" glyph-name="gid9" horiz-adv-x="1496" d="M1278,15q0-27-9-38.5T1242-35t-29,15t-18.5,34T1179,47.5T1158,62q-19,0-47-14.5T1040.5,14t-104-34T789-35Q630-35 502,19.5T284.5,172T147,403.5T99,696t50,293t140.5,233T503,1375.5T771,1430q114,0 186-23t111.5-46.5T1126,1337q22,0 30,19t15.5,38.5T1201,1414q11,0 18.5-7t12.5-24l107-334q6-17-1-28.5t-24-13.5q-13-2-23.5,4.5T1273,1032q-58,120-130.5,194t-163,108.5T777,1369q-147,0-264.5-79.5T326,1067.5T257,734q0-217 75.5-372t205-238T828,41q69,0 125,11t95.5,31.5t61,51.5t21.5,71V461q0,27-14,40t-53,19l-81,13q-19,4-28.5,11T945,562q0,12 10,18t29,6h410q20,0 29.5-6t9.5-18q0-10-7-16.5T1399,534l-55-12q-37-9-51.5-21.5T1278,461V15Z" />
      <glyph unicode="H" glyph-name="gid10" horiz-adv-x="1608" d="M342,695h887V632H342v63Zm91-579q0-20 12.5-32.5T482,67l75-12q33-7 33-29q0-12-8.5-19T554,0H155q-18,0-27,7t-9,19q0,22 33,29l76,12q23,4 36,16.5T277,116V1284q0,20-13,32.5T228,1333l-76,12q-33,7-33,29q0,13 9,19.5t27,6.5H554q19,0 27.5-6.5T590,1374q0-22-33-29l-75-12q-24-4-36.5-16.5T433,1284V116Zm898,0q0-20 13-32.5T1380,67l76-12q33-7 33-29q0-12-8.5-19T1452,0H1054q-19,0-28,7t-9,19q0,22 33,29l76,12q23,4 36,16.5t13,32.5V1284q0,20-13,32.5t-36,16.5l-76,12q-33,7-33,29q0,13 9,19.5t28,6.5h398q20,0 28.5-6.5t8.5-19.5q0-22-33-29l-76-12q-23-4-36-16.5t-13-32.5V116Z" />
      <glyph unicode="I" glyph-name="gid11" horiz-adv-x="709" d="M433,116q0-20 12.5-32.5T482,67l75-12q33-7 33-29q0-12-8.5-19T554,0H155q-18,0-27,7t-9,19q0,22 33,29l76,12q23,4 35.5,16.5T276,116V1284q0,20-12.5,32.5T228,1333l-76,12q-33,7-33,29q0,13 9,19.5t27,6.5H554q19,0 27.5-6.5T590,1374q0-22-33-29l-75-12q-24-4-36.5-16.5T433,1284V116Z" />
      <glyph unicode="J" glyph-name="gid12" horiz-adv-x="853" d="M685,202q0-104-89-167T367-28Q237-28 168.5,29T100,175q0,45 24,73.5T191,277q32,0 51.5-23T262,191V139q0-51 27-80t94-29q72,0 123,36t51,107q0,47-19.5,85.5t-45,79t-45,92T428,554v730q0,20-12.5,33T380,1333l-81,12q-18,3-26,10t-8,19q0,13 9,19.5t27,6.5H705q20,0 28.5-6.5T742,1374q0-22-33-29l-76-12q-23-4-36-16.5T584,1284V566q0-65 15.5-111.5T635,370t35-77.5T685,202Z" />
      <glyph unicode="K" glyph-name="gid13" horiz-adv-x="1448" d="M351,517l733,737q19,20 24,36t-5,27t-35,17l-74,12q-19,4-26.5,11t-7.5,17q0,13 10,19.5t29,6.5h340q21,0 30-6.5t9-19.5q0-11-9.5-17.5T1328,1344q-19-4-34.5-9.5t-33-17T1220,1286t-57-53L382,454l-31,63ZM656,782l122,97l496-751q20-30 47-46t66-22q38-7 49-15t11-20q0-11-10.5-18T1407,0H1005q-20,0-29.5,7T966,26q0,11 8,18.5t26,9.5l78,12q24,5 26,20t-14,39L656,782ZM434,116q0-20 12.5-32.5T481,67l74-12q18-4 25.5-11T588,26q0-12-8.5-19T551,0H157q-19,0-27.5,7T121,26q0,22 32,29l76,12q24,4 36.5,16.5T278,116V1284q0,20-12.5,32.5T229,1333l-76,12q-32,7-32,29q0,13 8.5,19.5T157,1400H555q20,0 28.5-6.5T592,1374q0-22-33-29l-76-12q-23-4-36-16.5T434,1284V116Z" />
      <glyph unicode="L" glyph-name="gid14" horiz-adv-x="1195" d="M557,1345l-75-12q-24-4-36.5-16.5T433,1284V129q0-35 24-51.5T534,61H790q60,0 100,15t69,52t56,103l53,133q7,15 16,21.5t24,4.5t21-12.5t1-28.5L1050,2q-6-21-16-31t-26-10q-18,0-33,9.5T943-10T898,0H155q-18,0-27,7t-9,19q0,22 33,29l76,12q23,4 35.5,16.5T276,116V1284q0,20-12.5,32.5T228,1333l-76,12q-33,7-33,29q0,13 9,19.5t27,6.5H554q19,0 27.5-6.5T590,1374q0-22-33-29Z" />
      <glyph unicode="M" glyph-name="gid15" horiz-adv-x="1740" d="M905,277l-60-43l454,1116q10,27 26,38.5t44,11.5h187q19,0 29-6.5t10-19.5q0-9-7-16.5t-28-11.5l-64-14q-37-9-50.5-27.5T1435,1240l88-1106q2-32 16-45t49-21l62-14q19-4 26.5-11t7.5-16q0-12-9.5-19.5T1645,0H1243q-19,0-29,7t-10,19q0,10 7.5,16.5T1239,54l62,14q40,9 54,23t12,42l-91,1109l57,1L882,130q-9-23-18.5-30.5T842,92q-9,0-16.5,3t-14,11.5T798,131L343,1222l56,42L302,156q-4-38 14-56t58-30l70-17q15-5 23.5-10.5T476,26T466,7.5T436,0H99Q79,0 69,7T59,26T69,44.5T96,55l59,17q37,8 54,27t21,57l97,1096q3,33-13,52.5T261,1331l-59,11q-21,5-30,12t-9,19q0,27 42,27H388q26,0 42-9t26-36L905,277Z" />
      <glyph unicode="N" glyph-name="gid16" horiz-adv-x="1557" d="M537,26q0-12-10-19T497,0H145q-19,0-29,7T106,26q0,19 32,28l71,18q46,13 60.5,27.5T284,150v988q0,27-8.5,47T235,1242l-92,107q-10,14-14,20.5t-4,12.5q0,9 7.5,13.5T152,1400H270q20,0 34.5-7.5T335,1364L1243,219l-36-58V1250q0,35-14,50.5t-61,27.5l-73,18q-32,10-32,28q0,13 10,19.5t30,6.5h352q19,0 29-6.5t10-19.5q0-18-32-28l-71-18q-46-12-60.5-27t-14.5-51V208q0-26 5-41t17-30l61-77q12-15 15.5-23t3.5-16q0-9-7-15t-24-6H1210q-30,0-30,25q0,14-5,25.5T1145,93L307,1156l50,45V150q0-35 14-50t61-28l73-18q32-10 32-28Z" />
      <glyph unicode="O" glyph-name="gid17" horiz-adv-x="1582" d="M788,1431q154,0 281-55t219.5-155T1431,986t50-296q0-160-50-293T1288.5,167.5T1068.5,18T787-35Q636-35 510,20T292,175T149.5,410.5T99,707q0,160 50,292.5t142,229T509.5,1378T788,1431Zm533-821q0,131-28,245.5t-79,207T1092,1222T934,1324.5T748,1360q-143,0-252.5-69.5T324,1092.5T262,787q0-132 27.5-247t78-208t121-160.5T646,68.5T831,33q145,0 255.5,70T1259,302.5T1321,610Z" />
      <glyph unicode="P" glyph-name="gid18" horiz-adv-x="1262" d="M1200,906q0-128-63-221.5t-175.5-145T702,488q-101,0-190.5,20.5T359,568l13,56q35-23 84-39t104.5-25T671,551q111,0 193.5,43.5t129,124T1040,909q0,129-57,226T820.5,1286T567,1340H434V116q0-20 12.5-33T483,67L598,55q19-2 27-9t8-20q0-12-8.5-19T596,0H157q-19,0-27.5,7T121,26q0,22 32,29l76,12q24,4 36.5,16.5T278,116V1284q0,20-12.5,32.5T229,1333l-76,12q-32,7-32,29q0,13 8.5,19.5T157,1400H570q197,0 338-64t216.5-175.5T1200,906Z" />
      <glyph unicode="Q" glyph-name="gid19" horiz-adv-x="1582" d="M788,1431q153,0 280-55t219.5-155t143-235T1481,690q0-160-50.5-293T1288,167.5T1068.5,18T787-35Q636-35 510,20T292,175T149.5,410.5T99,707q0,160 50,292.5t141.5,229t218,149.5T788,1431Zm533-821q0,131-28,245.5t-79,207T1092,1222T934,1324.5T748,1360q-143,0-252.5-69.5T324,1092.5T262,787q0-132 27.5-247t78-208t121-160.5T646,68.5T831,33q145,0 255.5,70T1259,302.5T1321,610ZM835,354q-5,20 2,33t22,15t24.5-6.5T898,367q44-140 93-235.5t106-153T1221-104t146-25q38,0 59,5t35,13.5T1490-92q11,7 18,1.5t7-15.5q0-6-3.5-16T1501-143l-39-69q-14-23-30-32t-46-9q-89,0-170,33.5T1064.5-114T936,73.5T835,354Z" />
      <glyph unicode="R" glyph-name="gid20" horiz-adv-x="1350" d="M1206,929q0-100-43-179.5t-121.5-132T857,545q-28-5-53.5-9T752,529t-56-3q-63,0-124,9T459,560.5T371,601l10,57q31-21 78.5-37T563,597t111-8q171,0 268.5,89.5T1040,931q0,119-56.5,212t-162,146T569,1342H433V116q0-20 12-32.5T480,67L588,55q19-4 26-11t7-18q0-26-36-26H155q-18,0-27,7t-9,19q0,22 33,29l76,12q23,4 35.5,16.5T276,116V1284q0,20-12.5,32.5T228,1333l-76,12q-33,7-33,29q0,13 9,19.5t27,6.5H573q203,0 344-61t215-167.5T1206,929ZM739,553l159,20l295-446q19-28 43-44.5T1303,58q38-7 49-14t11-18q0-12-10-19t-30-7H968q-38,0-38,26q0,9 7.5,15T960,50l47,7q25,5 28,19.5T1022,116L739,553Z" />
      <glyph unicode="S" glyph-name="gid21" horiz-adv-x="1141" d="M638-32Q544-32 476.5-7.5T368,41T312,65T291,50.5T280.5,17t-12-33.5T245-31q-11,0-18.5,8T215,2L136,309q-4,15 1.5,26T157,350q14,5 25-1t19-22q49-104 118.5-169.5T469.5,61T633,30q122,0 189,68t68,174q1,66-28.5,123.5T752,506.5T520,614Q373,667 284,731T154.5,875T114,1054q0,114 52,197.5T311,1381t214,46q99,0 159.5-23t95.5-46.5t55-23.5q21,0 24.5,23t8.5,46t27,23q13,0 20.5-8t13.5-27l99-324q5-16-0.5-29t-18.5-18q-15-4-26,1.5T964,1043q-58,119-126,189.5T693,1334t-162,31q-126,0-202.5-73T252,1100q0-69 31-130T392,854T613,745q156-59 246-122T987.5,485T1025,316q-1-95-45.5-174T849.5,15.5T638-32Z" />
      <glyph unicode="T" glyph-name="gid22" horiz-adv-x="1304" d="M287,1400h729q30,0 45,11t27,21.5t30,10.5t29-8.5t16-30.5l70-309q4-18-1.5-29.5T1211,1051q-14-3-25,3.5t-19,23.5q-43,114-75.5,169.5t-70,73T924,1338H730V116q0-20 13-32.5T779,67l75-12q33-7 33-29q0-26-36-26H453q-19,0-28,7t-9,19q0,22 33,29l76,12q23,4 36,16.5T574,116V1338H380q-60,0-97.5-17.5t-69.5-73T136,1078q-6-17-17.5-23.5T93,1051q-15,3-20.5,14.5T71,1095l69,309q6,22 16.5,30.5T186,1443q18,0 29.5-10.5t27-21.5t44.5-11Z" />
      <glyph unicode="U" glyph-name="gid23" horiz-adv-x="1471" d="M1168,579l-35,685q-1,30-18.5,46.5T1058,1335l-65,10q-24,5-31.5,12.5T954,1375q0,11 10,18t27,7h351q19,0 28.5-7t9.5-18t-8-18.5t-31-11.5l-61-9q-42-7-58-26.5t-14-48.5l34-686q3-49 5.5-96t4.5-98q5-121-50-214T1035.5,21T760-32Q582-32 461,19T280,161.5T224,377q1,30 3.5,75.5t5.5,96t4,93.5l32,631q2,28-15.5,42.5T201,1335l-61,10q-40,8-40,29q0,12 10,19t29,7H557q18,0 28-7t10-19q0-10-8.5-17T555,1346l-62-11q-33-5-48.5-18T427,1275L395,649q-4-77-6.5-138.5T384,395q-5-176 102-266T784,39q126,0 215,41t136,117t42,181q-2,68-4.5,114.5T1168,579Z" />
      <glyph unicode="V" glyph-name="gid24" horiz-adv-x="1364" d="M939,1374q0,13 10,19.5t29,6.5h319q21,0 30.5-6.5t9.5-17.5q0-9-7-15.5t-29-13.5l-46-13q-25-9-41.5-29t-32.5-68L793,142q-7-21-11-36.5T778,73V36q0-17-8.5-26.5T745,0H620q-18,0-27,9.5T584,36V74q0,16-3.5,30T569,140L160,1284q-8,25-19,35t-30,16l-49,11q-33,9-33,28q0,13 10,19.5t29,6.5H449q20,0 29.5-6.5T488,1374q0-10-9-16.5T453,1347l-98-13q-25-4-30-17.5t7-49.5L754,85L691,55l416,1185q15,44 6.5,65t-51.5,30l-88,12q-16,4-25.5,10.5T939,1374Z" />
      <glyph unicode="W" glyph-name="gid25" horiz-adv-x="2005" d="M990,1150l62-31L730,136q-6-17-9.5-32T717,71V36q0-17-9-26.5T683,0H570q-18,0-27,9.5T534,36V71q0,16-3,28.5T520,136L158,1286q-8,23-19,33.5T109,1335l-49,12q-20,6-27,12.5T26,1376q0,11 9.5,17.5T65,1400H434q20,0 29.5-6.5T473,1374q0-21-33-26l-92-12q-25-4-28.5-17.5T327,1270L691,105L632,58L990,1150Zm607,224q0,13 10,19.5t28,6.5h311q21,0 30-7t9-18q0-9-6.5-15t-28.5-13l-45-13q-26-9-42.5-29t-30.5-66L1492,136q-6-21-10-34.5T1478,71V36q0-17-8-26.5T1445,0H1322q-17,0-26.5,9.5T1286,36V71q0,16 0,30.5t-8,38.5L931,1286q-8,26-17.5,36T886,1336l-50,12q-19,5-26,11t-7,15q0,13 10,19.5t28,6.5h363q20,0 29.5-6.5t9.5-19.5q0-10-8.5-16.5T1208,1347l-90-11q-23-4-27.5-16.5t6.5-49.5L1448,109l-47-37l358,1170q14,45 5.5,65.5T1711,1336l-80,12q-19,3-26.5,9.5T1597,1374Z" />
      <glyph unicode="X" glyph-name="gid26" horiz-adv-x="1426" d="M1212,157q27-36 46-55.5t42.5-29T1364,55q19-5 29-11.5T1403,26q0-12-9.5-19T1365,0H933q-18,0-28,6.5T895,24q0,12 12.5,20T962,59q48,7 68.5,19t19.5,29.5T1030,151L236,1247q-25,34-43.5,53t-40,29T99,1345q-30,7-38.5,13T52,1374q0,13 10,19.5t29,6.5H521q19,0 28.5-6.5T559,1374q0-11-8.5-17.5T526,1347l-64-10q-53-8-63-27t12-51L1212,157ZM757,705l-60,34l360,486q36,50 30,74t-62,35l-69,11q-17,4-26,11t-9,18q0,13 9.5,19.5T960,1400h351q39,0 39-26q0-11-10.5-19t-40.5-16q-49-9-82.5-36.5T1137,1213L757,705ZM653,723l59-37L331,174q-38-52-31.5-75.5T362,65l67-11q17-4 26-10.5T464,26q0-12-10-19T425,0H73Q55,0 45,7T35,27q0,10 9,17.5T83,59q36,9 63.5,24t52,40.5T252,188L653,723Z" />
      <glyph unicode="Y" glyph-name="gid27" horiz-adv-x="1344" d="M747,462L634,427L176,1284q-13,27-26,37.5T115,1337l-35,8q-23,6-30.5,12.5T42,1374q0,13 10,19.5t30,6.5H472q20,0 32-6.5t12-19.5q0-22-46-30l-69-10q-42-7-52-20.5t4-41.5L742,527l-57-37l392,745q23,42 13,67t-58,33l-79,11q-16,3-24.5,10t-8.5,18q0,13 10,19.5t28,6.5h316q20,0 30.5-6.5T1315,1374q0-10-7.5-16.5T1276,1345l-15-5q-21-5-37-15.5t-32-31.5t-36-61L747,462ZM606,505H762V116q0-20 13-32.5T811,67l76-12q33-7 33-29q0-12-8.5-19T883,0H485q-19,0-27.5,7T449,26q0,22 33,29l75,12q24,4 36.5,16.5T606,116V505Z" />
      <glyph unicode="Z" glyph-name="gid28" horiz-adv-x="1256" d="M1106,1310L255,30L177,61H810q54,0 93,8t67.5,31t52.5,65t49,110l32,86q6,15 15.5,21t23.5,3q16-3 20.5-13.5T1165,344L1091,6q-5-21-14.5-32.5T1049-38q-16,0-27.5,9.5T995-9.5T953,0H137q-24,0-34.5,9T92,33q0,12 4.5,24T112,85L968,1370l22-31H451q-46,0-83.5-14.5t-66-48.5T251,1183l-30-86q-7-19-19.5-26.5T175,1066q-15,2-22,15t-3,35l64,286q6,25 17.5,36.5T260,1450t29.5-12.5t27.5-25t40-12.5h725q24,0 35-10t11-25q0-11-5-25t-17-30Z" />
      <glyph unicode="[" glyph-name="gid83" horiz-adv-x="612" d="M301,1382V-158q0-19 9.5-28.5T340-196H563q35,0 35-30q0-13-9-21t-26-8H230q-30,0-43,14t-13,43V1422q0,29 13,43t43,14H563q17,0 26-7.5t9-21.5q0-30-35-30H340q-20,0-29.5-9.5T301,1382Z" />
      <glyph unicode="\" glyph-name="gid88" horiz-adv-x="972" d="M454,601q22-49 51.5-117t63-147T637,174.5t69.5-165t66-154T830-273q12-24 33-32.5t46,2.5t31.5,33T936-223q-26,56-60.5,126.5T801.5,53T721,213T641.5,370.5t-71,143T515,629T462.5,746.5T400,894t-68.5,163t-70,165t-66,153.5T138,1504q-12,24-33.5,33T59,1535q-25-12-32-34t5-46q25-56 60-127t75-150t80.5-160T327,860t71.5-143T454,601Z" />
      <glyph unicode="]" glyph-name="gid84" horiz-adv-x="616" d="M315-158V1382q0,19-9.5,28.5T276,1420H53q-35,0-35,30q0,13 9,21t26,8H386q30,0 43-14t13-43V-198q0-29-13-43t-43-14H53q-17,0-26,7.5T18-226q0,30 35,30H276q20,0 29.5,9.5T315-158Z" />
      <glyph unicode="^" glyph-name="gid117" horiz-adv-x="967" d="M518,1358H450L762,801q14-22 29-26.5t30,1.5q13,7 15.5,20.5T828,830L557,1361q-21,38-37,50t-36,12t-36-12t-37-50L138,831q-10-20-7.5-34T146,776q14-6 29-1.5T205,801l313,557Z" />
      <glyph unicode="_" glyph-name="gid95" horiz-adv-x="922" d="M-4-221q0,20 8.5,31.5T31-178H891q19,0 26.5-11.5T925-221t-7.5-31.5T891-264H31q-18,0-26.5,11.5T-4-221Z" />
      <glyph unicode="`" glyph-name="gid153" horiz-adv-x="417" d="M227,1259l118-188q5-8 7-16.5t-6-14.5q-5-6-14-5t-18,5L137,1184q-32,24-52.5,46.5T61,1280q-4,25 11,46t45,24q35,5 59.5-20.5T227,1259Z" />
      <glyph unicode="a" glyph-name="gid29" horiz-adv-x="1045" d="M708,119v18l-6,8V691q0,103-51,156.5T505,901q-93,0-137-37.5T324,775V707q0-37-23-56t-62-19q-34,0-54,20.5T165,707q0,60 44.5,115.5t126.5,91T532,949q156,0 232.5-72T841,686V124q0-37 13.5-52.5T890,56q27,0 38,12t19,24q4,6 8.5,10.5T968,107t12-6t4-17q0-24-15.5-48t-45-40.5T850-21q-69,0-105.5,34T708,119ZM117,206q0,113 100,187.5T493,468q72,0 133-14.5T735,418l-10-43q-48,19-100,32.5T512,421q-116,0-181-52.5T266,227q0-85 51.5-131T449,50q79,0 153,35.5T731,190l19-36Q687,70 593.5,24.5T396-21Q273-21 195,39.5T117,206Z" />
      <glyph unicode="b" glyph-name="gid30" horiz-adv-x="1145" d="M318,1424V141L257,2q-18-12-28-17.5T207-21q-13,0-21,8t-8,25V1309q0,20-7,29t-25,10l-83,1q-16,1-22.5,6.5T34,1369q0,10 7,16.5T66,1398l146,49q26,9 41.5,12.5T280,1463q19,0 28.5-10t9.5-29ZM278,674l-21,48q75,108 175,167.5T646,949q118,0 210-60t144.5-165.5T1053,482q0-157-60.5-269.5T830,39T604-22Q485-22 391,39T242,209l30,42q54-98 136-151T584,47q90,0 162.5,47T861,234t42,229q0,132-40,223T753.5,824T595,871T424.5,821T278,674Z" />
      <glyph unicode="c" glyph-name="gid31" horiz-adv-x="984" d="M910,705q0-37-22.5-62T828,618q-36,0-57,21.5T750,698v30q0,72-56.5,117.5T538,891q-91,0-160.5-49t-109-137T229,501q0-135 46.5-229.5T402.5,128T587,79q105,0 181,53.5T867,267q7,14 13.5,19t16.5,5q11,0 16-8.5t4-19.5q-9-80-59-144.5T728,16.5T547-21Q411-21 308.5,37T150,201.5T94,451q0,139 58,252T315,882.5T561,949q108,0 186.5-34T868,825t42-120Z" />
      <glyph unicode="d" glyph-name="gid32" horiz-adv-x="1174" d="M831,159l-3,9V1309q0,20-7,29t-25,10l-83,1q-16,1-22.5,6.5T684,1369q0,10 7,16.5t25,12.5l147,49q24,9 40,12.5t28,3.5q19,0 28-10t9-29V115q0-23 11.5-36T1012,62l53-10q16-4 24.5-10.5T1098,24t-9-17.5T1062,0H908q-39,0-58,18.5T831,80v79ZM93,446q0,156 61,269T317,888.5T543,949q118,0 212.5-61T904,718l-30-42q-53,98-135.5,151T562,880q-90,0-162.5-46.5T285,694T243,464q0-131 40-222T392.5,104T551,57q90,0 171,50T869,253l20-47Q815,97 714.5,37.5T500-22Q383-22 290.5,38t-145,166T93,446Z" />
      <glyph unicode="e" glyph-name="gid33" horiz-adv-x="1016" d="M925,577q0-38-23-57.5T833,500H178v51H729q48,0 48,41q0,136-67,217.5T530,891q-90,0-158-49T266,705T228,501q0-204 100-313T586,79q110,0 189,54.5T877,270q7,14 13.5,19t15.5,5q12,0 17-9t4-21q-8-79-59.5-144T733,16.5T546-22Q410-22 307.5,36.5T149,201.5T93,451q0,141 56,253.5T307,883t240,66q112,0 197.5-47t133-131T925,577Z" />
      <glyph unicode="f" glyph-name="gid34" horiz-adv-x="673" d="M400,115q0-22 12-36t36-16L549,52q18-1 26.5-8.5T584,24q0-24-35-24H153q-16,0-25,6.5T119,24t8.5,17.5T153,52l57,10q24,6 37,18t13,34V797q0,21-10,34t-37,21l-62,14q-29,8-38.5,16T103,900t7.5,16t23.5,6H297l-37-37v35q0,37-14,69t-32.5,64.5T181,1124t-14,88q0,107 70.5,174T428,1453q76,0 130.5-26t83-69.5T670,1263q0-45-20.5-68.5T596,1171q-35,0-55,23.5T521,1257v37q0,54-28.5,83.5T410,1407q-67-1-103-43t-36-118q0-42 12-75.5t30.5-62.5t37-56.5T381,994t12-64V892l-22,30H607q17,0 25.5-6t8.5-18q0-15-16-25t-49-10H400V115Z" />
      <glyph unicode="g" glyph-name="gid35" horiz-adv-x="1077" d="M652,36Q510,62 445,83t-82.5,40.5T345,162q0,24 18,44t62,41l-33,12q-62-16-97.5-40T244,167.5T229,111q0-38 26-68.5t100.5-57T577-68q121-21 186-48.5t90-60T878-250q0-56-36.5-97T731-410.5T547-433q-195,0-277.5,58.5T187-225q0,73 73.5,130T478-22L452,7Q241-20 156.5-91.5T72-249q0-68 47-122.5T266-458t260-32q230,0 354,76.5T1004-217q0,63-32,111.5T863.5-22T652,36Zm69,808l41-12q41,67 66.5,88T880,941q21,0 34-12t23.5-27t24-27T996,863q30,0 46.5,20.5T1059,938q0,43-31,69.5T946,1034q-54,0-104-35T753,897l-32-53ZM925,589q0,102-51.5,183t-142,128.5T523,948T311.5,900T164,766.5T110,567q0-100 52-182T304.5,256T512,209q118,0 211.5,48T871,390.5T925,589ZM497,892q122,2 197.5-87T775,568q6-139-57-219.5T538,266q-81-1-142.5,39t-97,113.5T260,590q-4,93 23,160.5t81.5,104T497,892Z" />
      <glyph unicode="h" glyph-name="gid36" horiz-adv-x="1188" d="M372,1424V115q0-23 11.5-36T416,62l52-10q31-8 31-27q0-25-36-25H135q-17,0-26,6.5T100,24q0,10 8,16.5T132,51l56,11q21,5 32.5,17T232,114V1309q0,20-7.5,29T200,1348l-83,1q-16,1-22.5,6.5T88,1369q0,10 7,16.5t25,12.5l146,49q25,9 41,12.5t27,3.5q19,0 28.5-10t9.5-29ZM346,698l-32,31l48,41q111,96 191,137.5T711,949q118,0 181.5-77T972,662l66-542q3-26 14.5-40T1087,61l48-10q16-4 24-10.5t8-16.5q0-11-8.5-17.5T1132,0H801q-36,0-36,25q0,19 30,27l56,10q23,4 36,18.5T897,120L831,639q-14,111-59,167T643,862q-53,0-114-31T392,736l-46-38Z" />
      <glyph unicode="i" glyph-name="gid38" horiz-adv-x="568" d="M372,899V115q0-23 11.5-36T416,62l53-10q16-4 24.5-10.5T502,24T493,6.5T466,0H135q-17,0-25.5,6.5T101,24q0,10 7.5,16.5T132,51l56,11q21,5 32.5,17T232,114V784q0,20-7,29t-25,10l-83,1q-16,1-22.5,6.5T88,845t7,15.5T120,873l146,50q26,8 42,12t26,4q19,0 28.5-10.5T372,899Zm-92,258q-50,0-81.5,30.5T167,1263t31.5,75t81.5,30t82-30.5t32-74.5q0-45-32-75.5T280,1157Z" />
      <glyph unicode="j" glyph-name="gid39" horiz-adv-x="568" d="M372,98q0-48 13-93t30-88t29.5-85.5T457-255q0-94-67-152.5T212-466q-78,0-133,26T-5-371.5T-34-278q0,47 21.5,71T45-183q33,0 53-24.5T118-272v-35q0-54 28-83t83-29q61,1 94,33.5T356-292q0,37-12.5,72t-31,69.5T275.5-81t-31,72T232,68V784q0,20-7,29t-25,10l-83,1q-16,1-22.5,6.5T88,845t7,15.5T120,873l146,50q26,8 42,12t26,4q19,0 28.5-10.5T372,899V98ZM270,1157q-50,0-82,30.5T156,1263t32,75t82,30t82-30.5t32-74.5q0-45-32-75.5T270,1157Z" />
      <glyph unicode="k" glyph-name="gid40" horiz-adv-x="1145" d="M128,0q-17,0-22.5,6.5T100,24q0,10 8,16.5T132,51l56,11q21,5 32.5,17T232,114V1309q0,20-7.5,29T200,1348l-83,1q-16,1-22.5,6.5T88,1369q0,10 7,16.5t25,12.5l146,49q25,9 41,12.5t27,3.5q19,0 28.5-10t9.5-29V115q0-23 11.5-36T416,62l52-10q31-8 31-27q0-25-36-25H128ZM323,434L769,800q34,28 31,47.5T757,873l-46,7q-18,4-24.5,10T680,907q0,12 9.5,18.5T715,932h309q16,0 25-6.5t9-18.5q0-11-8-18.5T1017,877q-48-8-80-24.5T852,792L334,371l-11,63ZM603,618L954,133q31-43 53.5-57T1078,54q19-5 27-12.5t8-17.5q0-11-9.5-17.5T1078,0H735q-16,0-25,6.5T701,24q0,10 6.5,16.5T731,50l45,7q39,6 41.5,23T788,141L501,539l102,79Z" />
      <glyph unicode="l" glyph-name="gid41" horiz-adv-x="576" d="M372,1424V115q0-23 11.5-36T416,62l53-10q16-4 24.5-10.5T502,24T493,6.5T466,0H135q-17,0-25.5,6.5T101,24q0,10 7.5,16.5T132,51l56,11q21,5 32.5,17T232,114V1309q0,20-7,29t-25,10l-83,1q-16,1-22.5,6.5T88,1369q0,10 7,16.5t25,12.5l146,49q26,9 42,12.5t26,3.5q19,0 28.5-10t9.5-29Z" />
      <glyph unicode="m" glyph-name="gid42" horiz-adv-x="1813" d="M372,899V115q0-23 11.5-36T416,62l52-10q31-8 31-27q0-25-36-25H135q-17,0-26,6.5T100,24q0,10 8,16.5T132,51l56,11q21,5 32.5,17T232,114V784q0,20-7.5,29T200,823l-83,1q-16,1-22.5,6.5T88,845t7,15.5T120,873l146,50q25,8 41,12t27,4q19,0 28.5-10.5T372,899ZM346,698l-32,31l48,41q113,99 197.5,139T724,949q125,0 200-76.5T999,662V119q0-25 13-39t36-19l48-10q30-8 30-26q0-25-35-25H764q-37,0-37,25q0,19 31,27l55,10q24,4 35,18.5T859,120V639q0,112-56,167.5T656,862q-56,0-121-29.5T392,736l-46-38Zm627,0l-32,31l48,41q110,96 190,137.5T1335,949q119,0 182.5-77T1596,662l67-543q3-25 14.5-39T1712,61l48-10q16-4 23.5-10.5T1791,24q0-11-8-17.5T1757,0H1426q-36,0-36,25q0,19 30,27l56,10q23,4 36,18.5t9,39.5l-65,519q-14,111-59,167t-129,56q-53,0-113.5-31T1019,736l-46-38Z" />
      <glyph unicode="n" glyph-name="gid44" horiz-adv-x="1188" d="M372,899V115q0-23 11.5-36T416,62l52-10q31-8 31-27q0-25-36-25H135q-17,0-26,6.5T100,24q0,10 8,16.5T132,51l56,11q21,5 32.5,17T232,114V784q0,20-7.5,29T200,823l-83,1q-16,1-22.5,6.5T88,845t7,15.5T120,873l146,50q25,8 41,12t27,4q19,0 28.5-10.5T372,899ZM346,698l-32,31l48,41q111,96 191,137.5T711,949q117,0 181-77t80-210l66-542q3-26 14.5-40T1087,61l48-10q16-4 24-10.5t8-16.5q0-11-8.5-17.5T1132,0H801q-36,0-36,25q0,19 30,27l56,10q23,4 36,18.5T897,120L831,639q-14,111-59,167T643,862q-53,0-114-31T392,736l-46-38Z" />
      <glyph unicode="o" glyph-name="gid46" horiz-adv-x="1141" d="M572,948q139,0 246.5-62T987,714.5T1048,463q0-140-61-249.5T818,41T568-22Q429-22 322,40.5t-168,172T93,464q0,141 61,250T322.5,885.5T572,948ZM641,45q99,13 162,73.5T890,278t5,228q-21,133-76,221.5t-137.5,128T499,881q-98-12-161.5-72.5T250,649t-4-229q20-132 75.5-220.5T459,71.5T641,45Z" />
      <glyph unicode="p" glyph-name="gid47" horiz-adv-x="1176" d="M344,899V766l4-10V-352q0-22 11.5-35.5T392-404l84-10q16-3 24.5-10t8.5-18t-9-17.5T473-466H112q-18,0-26.5,6.5T77-442q0,10 8,16.5T108-415l56,11q21,4 32.5,16.5T208-352V785q0,19-7,28t-25,10l-83,1q-16,2-22.5,7T64,845t7,15.5T96,873l143,50q24,9 39.5,12.5T306,939q20,0 29-10t9-30ZM308,674l-21,47q74,109 174.5,168.5T677,949q117,0 209-60t145-165.5T1084,482q0-157-61-269.5T860,39T634-22Q516-22 421.5,39T273,209l30,43q53-99 135.5-152T615,47q90,0 162,46.5T891.5,233T934,463q0,133-40,223.5T784,824T625,871T455,821T308,674Z" />
      <glyph unicode="q" glyph-name="gid48" horiz-adv-x="1146" d="M704-466q-18,0-27,6.5T668-442t8,18t25,10l84,10q21,3 32.5,16.5T829-351V786l61,140q17,11 28,16.5t21,5.5q14,0 22-8t8-25V-352q0-23 11.5-35.5T1013-404l56-11q16-4 23.5-10.5T1100-442q0-11-8.5-17.5T1066-466H704ZM890,206Q817,98 716.5,38T501-22Q383-22 291,38T146.5,204T94,445q0,157 60.5,269.5T317.5,888T544,949q118,0 212-60.5T904,719l-30-42q-52,97-134.5,150.5T563,881q-90,0-162.5-47T286,694.5T244,464q0-131 40-222T393.5,104T552,57q90,0 171,50T870,253l20-47Z" />
      <glyph unicode="r" glyph-name="gid49" horiz-adv-x="849" d="M338,513q0,139 43,236.5T491.5,898T633,949q86,0 133.5-45.5T814,783q0-48-21.5-74.5T737,682q-35,0-55,20.5T662,760v31q-1,37-18.5,54.5T585,863q-51,0-100.5-40t-81-118.5T372,509l-34,4Zm28,386l6-243V115q0-22 12-35t38-16l94-12q18-1 27-8t9-20q0-11-9.5-17.5T516,0H135q-17,0-26,6.5T100,24q0,10 8,16.5T132,51l56,11q21,4 32.5,16.5T232,114V784q0,19-7.5,28T200,822l-83,1q-16,2-22.5,7T88,844t7,16t25,12l145,49q29,11 44.5,14.5T334,939q16,0 23.5-9.5T366,899Z" />
      <glyph unicode="s" glyph-name="gid50" horiz-adv-x="889" d="M485,35q81,0 129,43.5T662,193q0,44-21.5,79t-75,64T417,391q-123,31-195,76T119.5,567.5T89,688q0,116 83.5,188T409,948q58,0 97.5-10.5t66.5-21T620,906q19,0 28,10.5T665,938t24,11q9,0 16.5-6T718,920l80-221q8-19 5.5-32.5T786,646q-14-5-24.5,1T742,667q-43,88-95.5,137T535,872T414,891q-104,0-156-44.5T206,727q0-44 22-81t79-68.5T466,519q115-30 183-70.5t97.5-95T776,227T741,98.5T640.5,10T485-22q-57,0-93.5,13t-61,25.5T283,29q-18,0-27.5-12.5T238.5-9T217-22q-9,0-15,6T193,3L146,212q-6,30-4.5,44T157,275t24-3t21-30Q255,133 329,84T485,35Z" />
      <glyph unicode="t" glyph-name="gid52" horiz-adv-x="676" d="M157,864L97,878q-27,7-35.5,14.5T53,909q0,11 8,17t23,6h67q29,0 45,7.5T220,969l52,140q9,19 19.5,28t23.5,9t20.5-8.5T343,1115V209q0-68 29.5-103.5T454,70q36,0 56.5,10t32,23.5t20.5,24T585,139q10,0 15-6.5t5-19.5q0-29-25-58T511,6T410-14q-93,0-150.5,50.5T202,189V809q0,23-9.5,36T157,864Zm108,9l1,59H563q17,0 25.5-6t8.5-18q0-15-16-25t-48-10H265Z" />
      <glyph unicode="u" glyph-name="gid53" horiz-adv-x="1170" d="M821,88v81l-3,8V783q0,20-7.5,29T786,822l-83,1q-16,2-22.5,7T674,844t7,16t25,12l146,50q25,8 41,12t27,4q19,0 28.5-10t9.5-30V115q0-23 11.5-36T1002,62l53-10q16-4 24.5-10.5T1088,24t-9-17.5T1052,0H899q-39,0-58.5,21T821,88ZM201,266V783q0,20-7.5,29T169,822l-83,1q-16,2-22.5,7T57,844t6.5,16T88,872l147,50q25,9 41,12.5t26,3.5q20,0 29.5-10t9.5-30V289q0-112 55-167.5T541,66q55,0 119,30t142,95l46,39l32-31l-48-42Q720,59 636,19T473-21Q350-21 275.5,55.5T201,266Z" />
      <glyph unicode="v" glyph-name="gid54" horiz-adv-x="1078" d="M556-16H515q-21,0-34,10.5T460,26L151,801q-17,41-29.5,55T91,872l-43,7q-18,4-25,10.5T16,907t9,18t25,7H408q35,0 35-25q0-10-7-17t-27-10l-46-7q-52-8-61-29t12-76L587,68L557,57L837,767q22,56 13,77t-62,29l-46,7q-19,3-26.5,9.5T708,907q0,12 9.5,18.5T743,932h285q16,0 25.5-7t9.5-18q0-10-7-17t-27-10l-43-7q-19-3-33-20t-33-65L609,23Q600,1 587.5-7.5T556-16Z" />
      <glyph unicode="w" glyph-name="gid55" horiz-adv-x="1569" d="M509-16H464q-18,0-32,10T410,28L149,807q-12,37-25,49.5T91,873l-43,6q-19,4-25.5,10.5T16,907t9,18t25,7H399q17,0 26-6.5t9-18.5q0-10-7-17t-27-10l-46-7q-46-6-54-25.5T311,770L536,75L509,56L763,822l56-46L562,23Q555,2 540.5-7T509-16Zm595,0h-45q-16,0-31.5,10.5T1005,27L743,818q-11,30-22,40.5T689,873l-45,6q-18,4-25,10.5T612,907q0,25 35,25H975q34,0 34-25q0-11-7-18t-26-9l-49-6q-29-5-35.5-25t8.5-68L1130,72l-30-22l234,713q19,60 11,81.5T1287,873l-47,7q-19,3-26,9.5t-7,17.5q0,12 9,18.5t26,6.5h276q16,0 25.5-7t9.5-18q0-10-7-17t-27-10l-42-7q-19-3-33-20.5T1414,787L1156,24q-8-22-22-31t-30-9Z" />
      <glyph unicode="x" glyph-name="gid56" horiz-adv-x="1013" d="M452,495l52-34L264,142q-25-33-19.5-53.5T300,60l44-7q18-4 25-10.5T376,25q0-10-9-17T341,1H66Q50,1 40.5,8T31,26t7.5,17T66,56q25,7 43,16.5T145.5,101T191,155L452,495ZM344,803L562,514l7-7L854,134q33-43 52-58t50-22q19-6 26-12.5T989,25q0-11-9.5-18T954,0H613q-17,0-26.5,7T577,25q0,10 7,16.5T608,51l46,7q45,6 51.5,22.5T688,128L450,445l-8,8L181,800q-31,41-51,55.5T78,877q-20,5-27,11.5T44,906q0,12 9.5,19T79,932H417q17,0 26.5-6.5T453,907q0-10-6.5-17T423,880l-45-8q-47-7-51-23.5T344,803ZM555,455l-51,34L737,790q25,33 19.5,53.5T701,873l-45,7q-18,3-25.5,10T623,907q0,12 9.5,18.5T659,932H934q16,0 25.5-7t9.5-19q0-10-7.5-16.5T934,877q-38-10-61-29t-63-70L555,455Z" />
      <glyph unicode="y" glyph-name="gid57" horiz-adv-x="1073" d="M584,93L516-71L154,800q-17,43-36.5,57T48,879q-19,4-25.5,10.5T16,907t9,18t25,7H408q17,0 26-6.5t9-18.5q0-10-7-17t-27-10l-47-7q-51-8-59.5-28.5T316,768L584,93ZM430-232L528,14l19,39L829,763q23,56 14.5,78.5T782,872l-47,7q-19,3-27,10t-8,18q0,12 9.5,18.5T736,932h287q17,0 26-7t9-18q0-10-7-17t-27-11q-51-9-72.5-26.5T911,787L502-234q-40-99-79-154t-83-76T239-485q-88,0-137.5,46T52-330q0,45 19.5,69.5T125-236q31,0 49-22t23-58l5-29q2-38 20-54.5T266-416q30,0 56,16t52.5,56T430-232Z" />
      <glyph unicode="z" glyph-name="gid58" horiz-adv-x="913" d="M815,855L214,28L181,54H593q39,0 63,7.5T699.5,92T744,159l50,93q9,15 18,20.5t19,4.5q14-1 19.5-10.5T852,242L794,14q-7-24-14.5-33T760-28q-16,0-33.5,14T675,0H111Q87,0 77.5,7T68,26q0,10 5,21.5T91,77L686,896l21-19H330q-37,0-60.5-8.5t-41.5-30T191,779l-32-66q-8-15-16.5-21T122,688q-13,1-19.5,11T100,725l43,187q6,27 14.5,36t21.5,9q17,0 33-12.5T261,932H794q25,0 34.5-7t9.5-19q0-10-5.5-21.5T815,855Z" />
      <glyph unicode="{" glyph-name="gid85" horiz-adv-x="750" d="M333,611q0-22 27-22q104,0 157.5-38.5T571,449q0-56-35-108T455.5,235t-80-110.5T341,5q0-93 57-147.5T563-197h85q35,0 35-29q0-14-9.5-22T645-256H546q-113,0-187.5,33T247-132T210,0q0,77 38.5,141.5T338,262t89.5,105.5T466,462q0,44-32,70.5T340,559q-24,0-41-6.5T264,539t-43-7q-43,0-63.5,24.5T137,611q0,31 20.5,55T221,690q25,0 43-6.5T299,670t41-7q62,0 94,26.5T466,760q0,46-38.5,95.5T338,960.5T248.5,1081T210,1223q0,75 37,132.5T358.5,1446T546,1479h99q19,0 28.5-8t9.5-22q0-29-35-29H563q-108,0-165-54.5T341,1218q0-63 34.5-120t80-110T536,882t35-108q0-63-53.5-102T360,633q-27,0-27-22Z" />
      <glyph unicode="|" glyph-name="gid89" horiz-adv-x="485" d="M208,624q0,73-3.5,184t-8,236T188,1286.5T184,1490q0,30 15,48.5t44,18.5q28,0 43-18.5t15-48.5q0-59-2.5-145.5T293,1159t-6.5-198.5t-6-187.5T278,624q0-73 3.5-184.5t8-236.5t8-242.5T301-242q0-30-15-48.5T243-309q-29,0-44,18.5T184-242q0,59 2.5,145.5t6,186T200,288t6,187t2,149Z" />
      <glyph unicode="}" glyph-name="gid86" horiz-adv-x="750" d="M417,612q0,22-27,22q-104,0-157.5,38.5T179,774q0,56 35,108t80.5,106t80,110.5T409,1218q0,93-57,147.5T187,1420H102q-35,0-35,29q0,14 9.5,22t28.5,8h99q113,0 187.5-33T503,1355t37-132q0-77-38.5-141.5T412,961T322.5,855.5T284,761q0-44 32-70.5T410,664q24,0 41,6.5T486,684t43,7q43,0 63.5-24.5T613,612q0-31-20.5-55T529,533q-25,0-43,6.5T451,553t-41,7q-62,0-94-26.5T284,463q0-46 38.5-95.5t89.5-105T501.5,142T540,0q0-75-37-132.5T391.5-223T204-256H105q-19,0-28.5,8T67-226q0,29 35,29h85q108,0 165,54.5T409,5q0,63-34.5,120t-80,110T214,341T179,449q0,63 53.5,102T390,590q27,0 27,22Z" />
      <glyph unicode="~" glyph-name="gid118" horiz-adv-x="1272" d="M888,552q-69,0-134.5,33T626,662T503,739.5T381,773q-63,0-107-42T221,599q-3-20-14.5-28.5T181,562q-36,0-36,41q0,69 31,125.5T260.5,818T384,851q74,0 140-33.5t128-77t121-77T891,630q63,0 107.5,41T1050,801q5,22 16,30.5t25,8.5q36,0 36-41q0-70-30.5-126.5t-85-88.5T888,552Z" />
      <glyph unicode="&#xa0;" glyph-name="gid2" horiz-adv-x="463" />
      <glyph unicode="&#xa1;" glyph-name="gid64" horiz-adv-x="585" d="M295-314q-49,0-71.5,26.5T201-219q0,18 1.5,37.5T207-143l54,841q3,23 10.5,34T294,743t23-11t12-34l53-842q3-18 4.5-37.5T388-219q0-42-22-68.5T295-314Zm-1,1482q32,0 59-16.5t43-44t16-58.5q0-34-16-61.5t-42.5-43T294,929t-59.5,15.5t-42,43T177,1049q0,31 15.5,58.5t42,44T294,1168Z" />
      <glyph unicode="&#xa2;" glyph-name="gid135" horiz-adv-x="981" d="M550,469q0-64 2-134.5T557.5,196t6-127.5t5-105T571-105q0-25-11.5-38T528-156q-18,0-30,12.5T486-104q0,22 2.5,67.5t5.5,105T500,196t5,138.5T507,469q0,63-2,131.5t-5,135t-6,125t-5.5,103T486,1030q0,26 12,38.5t31,12.5t30.5-12.5T571,1030q0-22-2.5-66.5t-5-103t-6-125t-5.5-135T550,469ZM909,673q0-37-20.5-61.5T835,587q-34,0-55,22.5T759,673v34q0,77-57.5,125T543,880q-93,0-164.5-48.5T267,697T227,498q0-132 46-223T398.5,136T580,88q110,0 188,54.5T867,277q7,12 13,17t14,5q12-1 16.5-8t3.5-18q-8-78-58.5-140.5T724,33.5T543-3Q408-3 306.5,52.5T149,210T93,451q0,134 58.5,242.5T315,865.5T560,929q108,0 186.5-35.5T867,799t42-126Z" />
      <glyph unicode="&#xa3;" glyph-name="gid134" horiz-adv-x="1238" d="M396,240l-42,15q70,42 102,97.5T488,469q-1,53-25,107T403.5,685T333,797.5T274,915t-24,124q0,117 50.5,206.5t149.5,140T696,1436q143,0 235.5-45.5t137-121.5t44.5-169q0-53-22-86t-62-33q-38,0-62.5,28T942,1087v57q0,118-68.5,182.5T683,1391q-135,0-206-85.5T406,1066q0-68 26-138t59.5-141.5t59.5-142T576,507q-1-78-42.5-147T396,240ZM112,69q0,57 27.5,104.5t80.5,76T349,278q67,0 133-23t129.5-53.5t124.5-54T857,124q88,0 136,35.5T1065,277q4,11 13.5,17t20.5,5t17.5-9t4.5-24q-13-103-47.5-166.5T984.5,7T856-22Q802-22 756-6.5T662.5,42T558,127q-65,48-105,68.5T370,216t-60.5-34T283,76q-3-33-14-55T239.5-12T192-23q-37,0-58.5,24T112,69Zm56,584q0,11 7.5,17t20.5,7l240,2l31-48H197q-14,0-21.5,6T168,653Zm345-22l-11,46H922q15,0 21.5-6.5T950,654q0-23-28-23H513Z" />
      <glyph unicode="&#xa4;" glyph-name="gid130" horiz-adv-x="1133" d="M161,309q-12-11-12-25.5T163,256q13-13 28-13.5T218,254L397,433l-60,53L161,309Zm2,760q-14-13-14-27.5t12-25.5L338,838l55,57L218,1071q-12,12-27,11.5T163,1069Zm817,1q-14,13-29,13.5T923,1071L744,892l58-55l179,179q12,13 12,27t-13,27Zm0-815q13,13 13,27t-12,27L804,486l-57-56L923,254q13-13 28-12.5T980,255ZM568,341q92,0 164.5,40.5T846.5,495T888,663q0,96-41.5,167t-114,110.5T568,980q-91,0-163.5-40T290,829T248,663t42-167.5T404,382t164-41Zm0,68q-71,0-125,33t-84,90.5T329,663q0,74 30,130.5t84,89T568,915q72,0 126-32.5T778,793t30-130T778,532.5T694,442T568,409Z" />
      <glyph unicode="&#xa5;" glyph-name="gid132" horiz-adv-x="1357" d="M746,508L630,468L211,1284q-13,25-25.5,36T150,1337l-35,8q-23,6-30.5,12.5T77,1374q0,13 10,19.5t30,6.5H502q20,0 32-6.5t12-19.5q0-21-46-30l-69-10q-44-8-53-21.5t5-40.5L735,569l-48-33l357,699q23,43 12.5,67.5T999,1335l-79,11q-16,3-24.5,10t-8.5,18q0,13 9.5,19.5T925,1400h315q19,0 29.5-6.5T1280,1374q0-10-7-16.5t-32-12.5l-14-5q-22-5-38.5-15.5t-32-32T1121,1232L746,508ZM602,551l152,1V116q0-19 12.5-32T803,67l75-12q33-8 33-29q0-12-8.5-19T875,0H481q-18,0-27,7t-9,19q0,21 33,29l76,12q24,5 36,17.5T602,116V551ZM180,496q0,11 7,17.5t20,6.5h946q15,0 21.5-6.5T1181,496q0-23-28-23H207q-27,0-27,23ZM817,713l23,47h313q15,0 21.5-6t6.5-17q0-24-28-24H817ZM180,737q0,11 7,17t20,6H581l24-47H207q-27,0-27,24Z" />
      <glyph unicode="&#xa6;" glyph-name="gid90" horiz-adv-x="684" d="M362,762q0-25-8.5-36T326,715q-18,0-27,11.5T290,762q0,62-3.5,155.5t-8,198.5t-8,203.5T267,1490q0,30 15,48.5t43,18.5q29,0 43.5-18.5T383,1490q0-62-3-158.5t-7.5-203T365,925t-3-163ZM290,486q0,25 8.5,36T326,533q18,0 27-11t9-36q0-62 3-155.5T372.5,132T380-71.5T383-242q0-30-14.5-49T325-310q-28,0-43,19t-15,49q0,63 3.5,158.5t8,202.5t8,204T290,486Z" />
      <glyph unicode="&#xa7;" glyph-name="gid140" horiz-adv-x="1125" d="M630,190l-7,45q104,7 160,64.5T839,443q0,58-25.5,103.5t-88,88T550,723Q414,776 332.5,829.5t-118,120T178,1109q0,95 44,166.5t120.5,111T516,1426q76,0 125-17t81-34t54-17t25.5,17t8,33.5T837,1425q13,0 20.5-6.5T870,1396l80-272q5-14-0.5-24.5T931,1085q-29-9-43,17q-50,97-108.5,156T656,1343t-135,26q-97,0-157-61t-60-160q0-65 25-114t84.5-90T576,860q146-57 227.5-111.5T917.5,631T950,486q0-83-40-148T798.5,234T630,190ZM422,841l28-37q-97-26-139.5-78.5T268,588q0-67 27-116.5T385,381t170-84q145-58 226.5-113.5T896,66T929-76q0-84-39-153T775.5-338.5T591-379q-75,0-127.5,18.5t-86,36.5T327-306q-18,0-21-17.5t-7.5-36T270-378q-12,0-19.5,8T237-344L172-100q-10,36 18,45q13,4 24-1t19-22q40-88 96-141.5t122-78T587-322q103,0 160.5,59T805-112q0,55-24.5,99t-84,85.5T529,160Q393,212 311.5,265t-118,119.5T157,545q0,73 31.5,134.5t90.5,103T422,841Z" />
      <glyph unicode="&#xa8;" glyph-name="gid157" horiz-adv-x="643" d="M148,1062q-40,0-65,26.5T58,1155t25,66.5t65,26.5q41,0 65-26.5t24-67.5q0-39-24-65.5T148,1062Zm348,0q-40,0-65,26.5T406,1155t25,66.5t65,26.5q42,0 66-26.5t24-67.5q0-39-24-65.5T496,1062Z" />
      <glyph unicode="&#xa9;" glyph-name="gid99" horiz-adv-x="1878" d="M939-85q173,0 318,58t251.5,164.5T1673,388t58,316t-58,316t-164.5,250T1257,1434t-318,58t-318-58T369.5,1270T205,1020T147,704t58-316T369.5,138T621-26.5T939-85Zm0,57Q724-28 560.5,66T305,325.5T213,704t92,378t255.5,259.5T939,1436q161,0 294-54.5t230-152T1612.5,998T1665,704t-52.5-294T1463,177.5t-230-152T939-28Zm409,487q-1-36-27-82t-76-88.5T1123.5,218T960,190q-147,0-254.5,65T540,433T482,690q0,153 60.5,273t166,188.5T950,1220q75,0 124-19t77-38t41-19q14,0 21.5,13.5t15.5,27t21,13.5q9,0 15-4.5t10-18.5l80-254q5-13-2-23.5T1332,885q-13-1-23,6t-16,22q-58,141-139,197t-192,56q-93,0-167-57.5T678,949T635,714q0-132 47-230T811,331.5T999,277q79,0 141.5,26t98.5,67q35,34 49.5,59.5t22,40T1331,484q17-1 17-25Z" />
      <glyph unicode="&#xaa;" glyph-name="gid138" horiz-adv-x="1017" d="M194,1206q0,54 40.5,103T350,1389t178,31q135,0 201.5-62T796,1191V720q0-31 12-45.5T840,660q23,0 33,9t16,18t16,9q7,0 12-5t5-15q0-16-14.5-34.5T867,610t-62-13q-57,0-93,29.5T676,719l-5,24v460q0,82-44.5,127T499,1375q-82,0-122.5-36T336,1260v-56q0-31-21-47.5T259,1140q-30,0-47.5,18T194,1206ZM696,935q-42,15-88.5,26.5T508,973q-106,0-166-44T282,812q0-72 47-111.5T448,661t137.5,33.5T703,788l18-34q-58-73-141-115T403,597q-111,0-182,52T150,793q0,95 91.5,158.5T496,1015q59,0 113-12t96-28l-9-40Z" />
      <glyph unicode="&#xab;" glyph-name="gid77" horiz-adv-x="1031" d="M111,470q0,17 11,32t47,42q51,39 93.5,73.5t79,66.5t68,61T471,803q10,9 20.5,12t19.5-3q6-6 5.5-15.5T508,774q-29-45-70-97.5t-93.5-110T227,449v42q65-60 117.5-117.5t93.5-110T508,166q8-13 8.5-22.5T511,129q-9-7-19.5-4T471,137q-30,29-62,58.5t-68.5,61T262,323t-93,73q-36,27-47,42.5T111,470Zm399,0q0,17 11,32t47,42q51,39 93.5,73.5t79,66.5t68,61T870,803q10,9 20.5,12t19.5-3q6-6 5.5-15.5T907,774q-29-45-70-97.5t-93.5-110T626,449v42q65-60 117.5-117.5t93.5-110T907,166q8-13 8.5-22.5T910,129q-9-7-19.5-4T870,137q-30,29-62,58.5t-68.5,61T661,323t-93,73q-36,27-47,42.5T510,470Z" />
      <glyph unicode="&#xac;" glyph-name="gid127" horiz-adv-x="1103" d="M139,800q0,17 14,26t34,9H879q22,0 36-10.5T929,793V482q0-14-11-24.5T887,447q-19,0-30.5,11T845,483V785l18-20H185q-18,0-32,9t-14,26Z" />
      <glyph unicode="&#xad;" glyph-name="gid92" horiz-adv-x="843" d="M683,621q44,0 29-37l-20-49q-6-17-16.5-23.5T646,505H161q-44,0-29,38l19,49q8,18 17.5,23.5T197,621H683Z" />
      <glyph unicode="&#xae;" glyph-name="gid100" horiz-adv-x="1495" d="M747,276q137,0 253,45.5T1201,450t132,195.5T1380,891t-47,245t-132.5,194t-201,127T747,1502q-138,0-253.5-45T293,1330T161,1136T114,891t47-245.5T293,450T493.5,321.5T747,276Zm0,53q-165,0-293.5,72.5T251.5,601T178,891q0,164 73.5,289.5t202,197T747,1449q164,0 293-71.5T1243,1180t74-289t-73.5-290T1041,401.5T747,329Zm293,687q0-78-51.5-131T856,817q-20-4-38.5-7.5T777,806q-49,0-98,14.5T592,857l5,40q42-27 88.5-38T763,848q81,0 124.5,44.5T931,1016q0,85-51.5,142T735,1215H641V632q0-20 7-31t21-15l39-8q14-3 19-7.5t5-10.5q0-17-26-17H477q-25,0-25,17q0,12 24,19l31,8q15,4 22,14.5t7,30.5v536q0,19-6.5,30.5T510,1213l-34,7q-24,6-24,22q0,19 26,19H736q143,0 223.5-71t80.5-174ZM776,825l102,14l128-212q13-20 27-30.5t33-14.5t25.5-9t6.5-13q0-9-7-13.5t-20-4.5H853q-25,0-25,17q0,12 21,17l33,6q17,3 19,12t-9,28L776,825Z" />
      <glyph unicode="&#xaf;" glyph-name="gid156" horiz-adv-x="641" d="M58,1151q0,20 10.5,30T98,1191H532q19,0 29.5-10t10.5-30t-10.5-30T532,1111H98q-19,0-29.5,10T58,1151Z" />
      <glyph unicode="&#xb0;" glyph-name="gid137" horiz-adv-x="789" d="M394,1423q89,0 156-39.5t104.5-107T692,1125T654.5,974.5T550,869T394,830q-88,0-155,39T134.5,975.5T97,1126t37,150.5t104,107T394,1423Zm0-67q-96,0-154-66.5T182,1126t58.5-162.5T394,898q96,0 154.5,65T607,1125q0,98-58,164.5T394,1356Z" />
      <glyph unicode="&#xb1;" glyph-name="gid121" horiz-adv-x="1103" d="M148,841q0,17 13.5,27T193,878H929q17,0 29.5-10T971,841q0-18-12.5-28.5T929,802H192q-17,0-30.5,10.5T148,841ZM556,454q-17,0-27,13.5T519,499v736q0,17 10,29.5t27,12.5q18,0 28.5-12.5T595,1235V498q0-17-10.5-30.5T556,454ZM143,211q0,17 13.5,27T188,248H924q17,0 29.5-10T966,211q0-18-12.5-28.5T924,172H187q-17,0-30.5,10.5T143,211Z" />
      <glyph unicode="&#xb2;" glyph-name="gid145" horiz-adv-x="700" d="M158,836l-29,19L282,973q70,52 110.5,92.5t57.5,79t17,86.5q0,81-34.5,119.5T339,1389q-63,0-93-32t-30-78v-48q0-29-16-44.5T157,1171q-25,0-40.5,16.5T101,1236q0,73 63,130.5T351,1424q116,0 173.5-53.5T582,1235q0-46-20.5-85T491,1067T352,964L158,836ZM87,774q0,48 38.5,79.5T242,885q47,0 87.5-19t78-38.5T483,808q34,0 53,14t28,46q2,11 9.5,16t16.5,4q25-1 21-30q-10-80-45-112t-91-32q-43,0-76,19t-65,57q-28,28-49.5,40T242,842q-23,0-33.5-16.5T197,774q-2-29-16-44.5T142,714q-24,0-39.5,16T87,774Z" />
      <glyph unicode="&#xb3;" glyph-name="gid146" horiz-adv-x="659" d="M285,1072l-4,16q11,2 23.5,2.5T328,1091q113,0 177.5-48.5T570,907q0-92-71-148T314,703q-109,0-167.5,48.5T88,865q0,31 17,49t44,18q26,0 39-15.5T201,873V833q0-43 29.5-68T319,740t99.5,36.5T459,888q0,82-39,122t-124,40H260q-15,0-22,4.5t-7,13.5q0,7 4.5,15t17.5,20l246,245l4-32H214q-30,0-38-27l-14-51q-3-11-10.5-17t-19.5-6q-13,0-20,7.5t-6,23.5l15,124q2,13 12.5,21.5T164,1400H552q12,0 18.5-5.5T577,1380q0-7-5-14.5T554,1346L285,1072Z" />
      <glyph unicode="&#xb4;" glyph-name="gid152" horiz-adv-x="412" d="M183,1259q26,45 51,70.5t59,20.5q30-3 45-24t12-46q-4-27-24.5-49.5T272,1184L95,1040q-7-4-15.5-5T64,1040q-8,6-5.5,14.5T66,1071l117,188Z" />
      <glyph unicode="&#xb5;" glyph-name="gid142" horiz-adv-x="1178" d="M200,273h42q0-131 8-236t18.5-187T287-294t8-107q0-35-19.5-55T227-476q-30,0-49.5,20.5T158-399q0,44 6,107t14.5,145t15,187T200,273Zm641-43l32-31l-51-44Q711,60 628.5,19.5T466-21Q346-21 273,54T200,262V873q0,17 7,27t21,15l47,15q14,5 23,7t18,2q11,0 16.5-6.5T338,915V289q0-112 54.5-167.5T535,66q55,0 118,29.5T794,191l47,39ZM964-21q-71,0-107.5,36T819,129l-3,47V873q0,17 7,27t22,15l46,15q14,5 23.5,7t18.5,2q10,0 16-6.5t6-17.5V125q0-37 13.5-53T1004,56q28,0 39,12.5t17,25t18,12.5q8,0 13-6t5-17q0-23-15-47T1036.5-4.5T964-21Z" />
      <glyph unicode="&#xb6;" glyph-name="gid141" horiz-adv-x="1161" d="M780,128V1263q0,27-19,44.5T693,1325q-47,0-67.5-19T605,1263V128q0-23 20.5-42.5T693,66q49,0 68,18t19,44ZM991,0H357q-15,0-24,6.5T324,24q0,13 9.5,21T359,55l89,13q25,4 38.5,17T500,117V709q-18-4-38-7t-50-3q-158,0-249.5,87T71,1026q0,114 52.5,198T277,1354t243,46H996q15,0 25-6.5t10-18.5t-8.5-19T999,1346l-63-14q-24-5-37.5-18T885,1279V114q0-18 13-29.5T935,68l59-12q17-3 26-10t9-19q0-13-11-20T991,0Z" />
      <glyph unicode="&#xb7;" glyph-name="gid96" horiz-adv-x="510" d="M255,375q-32,0-59,16.5t-43,44T137,494q0,34 16,61t43,43t59,16q33,0 59.5-16t42-43T372,494q0-31-15.5-58.5t-42-44T255,375Z" />
      <glyph unicode="&#xb8;" glyph-name="gid159" horiz-adv-x="485" d="M237,11h54L209-143l-30,11q13,1 27.5,2t31.5,1q84,0 133-40.5T420-275q0-70-51-113T233-431q-73,0-122,31.5T59-320q-1,13 6,20.5T81-291q11,0 18.5-5T111-310q10-39 42-55.5T223-382q92,0 92,105q0,46-25,74.5T216-174H180q-19,0-24,11.5t3,26.5L237,11Z" />
      <glyph unicode="&#xb9;" glyph-name="gid144" horiz-adv-x="566" d="M127,1329h73q18,0 25-7t7-29V813q0-17-9-27t-25-12l-79-8q-24-3-24-21q0-20 27-20H448q27,0 27,19q0,18-23,21l-71,9q-18,2-25.5,12T348,812v590q0,26-25,26q-10,0-17.5-5T289,1409q-16-18-33-26t-47-8H128q-14,0-22-6.5T98,1351q0-10 7-16t22-6Z" />
      <glyph unicode="&#xba;" glyph-name="gid139" horiz-adv-x="1075" d="M538,1418q124,0 219.5-52t149-144.5T960,1008T906,794T756.5,648T536,595q-123,0-218,52T169,791.5T115,1005q0,120 54,213.5T318.5,1365T538,1418Zm64-767q84,12 139.5,65T819,854t3,191q-19,111-70,185T629,1339t-156,23q-82-11-138.5-64t-78-137.5T253,968q20-109 70.5-184t123-109T602,651Z" />
      <glyph unicode="&#xbb;" glyph-name="gid78" horiz-adv-x="1031" d="M921,470q0-17-11-32t-47-42q-51-39-93.5-73.5t-79-66.5t-68-61T561,137q-10-9-20.5-12T521,128q-6,6-5.5,15.5T524,166q29,45 70,97.5t93.5,110T805,491V449q-65,60-117.5,117.5T594,676.5T524,774q-8,13-8.5,22.5T521,811q9,7 19.5,4T561,803q30-29 62-58.5t68.5-61T770,617t93-73q36-27 47-42.5T921,470Zm-399,0q0-17-11-32t-47-42q-51-39-93.5-73.5t-79-66.5t-68-61T162,137q-10-9-20.5-12T122,128q-6,6-5.5,15.5T125,166q29,45 70,97.5t93.5,110T406,491V449q-65,60-117.5,117.5T195,676.5T125,774q-8,13-8.5,22.5T122,811q9,7 19.5,4T162,803q30-29 62-58.5t68.5-61T371,617t93-73q36-27 47-42.5T522,470Z" />
      <glyph unicode="&#xbc;" glyph-name="gid149" horiz-adv-x="1498" d="M174,1329h73q18,0 25-7t7-29V813q0-17-9-27t-25-12l-79-8q-24-3-24-21q0-20 27-20H495q27,0 27,19q0,18-23,21l-71,9q-18,2-25.5,12T395,812v590q0,26-25,26q-10,0-17.5-5T336,1409q-16-18-33-26t-47-8H175q-14,0-22-6.5t-8-17.5q0-10 7-16t22-6Zm961-977q0,13 3.5,21t11.5,13l57,50q8,6 13.5,8.5T1231,447q16,0 16-17l1-347q0-15 9-23.5T1282,48l44-7q12-3 18-8t6-13q0-20-27-20H1057q-27,0-27,20q0,17 24,21l47,7q17,3 25.5,11.5T1135,83V352Zm-61,133q21,21 30,37.5t9,30.5q0,17-8.5,29T1087,607t-9,34q0,27 19.5,45.5T1155,705q33,0 53-18.5t20-52.5q0-35-17.5-68T1148,491L860,198l-10,23h487q13,0 19.5-5t6.5-15q0-21-26-21H841q-14,0-21.5,5.5T812,200q0,7 4,13t15,16l243,256ZM837,789q-11-15-21.5-19T792,772q-13,7-13,19.5t8,28.5q17,30 41,75t51.5,97.5t57.5,109t58.5,110T1050,1312t46,81q14,24 37.5,32t47.5-6q23-14 27.5-36t-11.5-47q-17-29-44.5-71.5t-61-94t-70-105T950.5,960t-64-95.5T837,789ZM665,604q11,16 22,20t23-2q13-7 13.5-20T715,574q-17-31-41-75.5T622.5,401T565,292T506.5,182t-54-101T406,1q-14-24-37.5-31.5T321-25q-23,13-27.5,35.5T305,57q17,29 44.5,72t61,94t70,105t71,106t64,96T665,604Z" />
      <glyph unicode="&#xbd;" glyph-name="gid150" horiz-adv-x="1509" d="M176,1329h73q18,0 25-7t7-29V813q0-17-9-27t-25-12l-79-8q-24-3-24-21q0-20 27-20H497q27,0 27,19q0,18-23,21l-71,9q-18,2-25.5,12T397,812v590q0,26-25,26q-10,0-17.5-5T338,1409q-16-18-33-26t-47-8H177q-14,0-22-6.5t-8-17.5q0-10 7-16t22-6ZM837,789q-11-15-21.5-19T792,772q-13,7-13,19.5t8,28.5q17,30 41,75t51.5,97.5t57.5,109t58.5,110T1050,1312t46,81q14,24 37.5,32t47.5-6q23-14 27.5-36t-11.5-47q-17-29-44.5-71.5t-61-94t-70-105T950.5,960t-64-95.5T837,789ZM665,604q11,16 22,20t23-2q13-7 13.5-20T715,574q-17-31-41-75.5T622.5,401T565,292T506.5,182t-54-101T406,1q-14-24-37.5-31.5T321-25q-23,13-27.5,35.5T305,57q17,29 44.5,72t61,94t70,105t71,106t64,96T665,604ZM968,100l-29,19l153,118q70,52 110.5,92.5t57.5,79t17,86.5q0,81-34.5,119.5T1149,653q-63,0-93-32t-30-78V495q0-29-16-44.5T967,435q-25,0-40.5,16.5T911,500q0,73 63,130.5T1161,688q116,0 173.5-53.5T1392,499q0-46-20.5-85T1301,331T1162,228L968,100ZM897,38q0,48 38.5,79.5T1052,149q47,0 87.5-19t78-38.5T1293,72q34,0 53,14t28,46q2,11 9.5,16t16.5,4q25-1 21-30q-10-80-45-112t-91-32q-43,0-76,19t-65,57q-28,28-49.5,40T1052,106q-23,0-33.5-16.5T1007,38q-2-29-16-44.5T952-22q-24,0-39.5,16T897,38Z" />
      <glyph unicode="&#xbe;" glyph-name="gid151" horiz-adv-x="1531" d="M1167,352q0,13 3.5,21t11.5,13l57,50q8,6 13.5,8.5T1263,447q16,0 16-17l1-347q0-15 9-23.5T1314,48l44-7q12-3 18-8t6-13q0-20-27-20H1089q-27,0-27,20q0,17 24,21l47,7q17,3 25.5,11.5T1167,83V352Zm-61,133q21,21 30,37.5t9,30.5q0,17-8.5,29T1119,607t-9,34q0,27 19.5,45.5T1187,705q33,0 53-18.5t20-52.5q0-35-17.5-68T1180,491L892,198l-10,23h487q13,0 19.5-5t6.5-15q0-21-26-21H873q-14,0-21.5,5.5T844,200q0,7 4,13t15,16l243,256ZM868,789q-11-15-21.5-19T823,772q-13,7-13,19.5t8,28.5q17,30 41,75t51.5,97.5t57.5,109t58.5,110T1081,1312t46,81q14,24 37.5,32t47.5-6q23-14 27.5-36t-11.5-47q-17-29-44.5-71.5t-61-94t-70-105T981.5,960t-64-95.5T868,789ZM696,604q11,16 22,20t23-2q13-7 13.5-20T746,574q-17-31-41-75.5T653.5,401T596,292T537.5,182t-54-101T437,1q-14-24-37.5-31.5T352-25q-23,13-27.5,35.5T336,57q17,29 44.5,72t61,94t70,105t71,106t64,96T696,604ZM336,1072l-4,16q11,2 23.5,2.5T379,1091q113,0 177.5-48.5T621,907q0-92-71-148T365,703q-109,0-167.5,48.5T139,865q0,31 17,49t44,18q26,0 39-15.5T252,873V833q0-43 29.5-68T370,740t99.5,36.5T510,888q0,82-39,122t-124,40H311q-15,0-22,4.5t-7,13.5q0,7 4.5,15t17.5,20l246,245l4-32H265q-30,0-38-27l-14-51q-3-11-10.5-17t-19.5-6q-13,0-20,7.5t-6,23.5l15,124q2,13 12.5,21.5T215,1400H603q12,0 18.5-5.5T628,1380q0-7-5-14.5T605,1346L336,1072Z" />
      <glyph unicode="&#xbf;" glyph-name="gid62" horiz-adv-x="872" d="M540,489L530,722q-2,17-10.5,26T496,757q-14,0-22.5-8.5T462,722l-8-224q-3-35-13-52.5T406,419l-59-23Q200,340 137.5,249.5T75,41q0-156 98.5-244.5T442-292q108,0 196.5,43.5t140,114T830,17q0,49-23.5,77.5T743,123q-42,0-67-29T652,17V-47q0-83-50-136.5T447-237q-95,0-154.5,67T233,31q0,109 41.5,185.5T428,348l50,23q40,19 53,46.5t9,71.5Zm-44,679q32,0 58.5-16.5T597,1108t16-59q0-34-16-61t-42.5-43T496,929q-34,0-60.5,16t-42,43T378,1049q0,32 15.5,59t42,43.5T496,1168Z" />
      <glyph unicode="&#xc0;" glyph-name="gid180" horiz-adv-x="1376" d="M342,544H943l8-64H330l12,64ZM416,26q0-12-9.5-19T377,0H71Q51,0 41.5,7T32,25q0,9 7,15T66,53l44,13q28,10 41,28.5T180,162L563,1286q10,29 3,41t-43,18q-27,5-38,12.5T474,1376t10,17.5t30,6.5H851q20,0 29.5-6.5T890,1377q0-12-10-19.5T843,1346q-30-5-36-14.5t2-32.5L1212,128q10-33 29.5-49T1299,56q25-5 33-12t8-18q0-12-10-19t-29-7H948q-19,0-29,7T909,26q0,10 8,17t26,10l83,10q26,4 28,19t-9,49L633,1335l25,9L260,168q-11-32-11-52.5T262,83t40-19l79-11q19-4 27-10t8-17ZM623,1667l145-161q6-7 9.5-14.5T775,1476q-6-5-15-5.5t-17,3.5L547,1581q-35,19-58.5,37.5T459,1664q-8,23 4,44.5t40,28.5q32,8 59.5-12.5T623,1667Z" />
      <glyph unicode="&#xc1;" glyph-name="gid179" horiz-adv-x="1376" d="M342,544H943l8-64H330l12,64ZM416,26q0-12-9.5-19T377,0H71Q51,0 41.5,7T32,25q0,9 7,15T66,53l44,13q28,10 41,28.5T180,162L563,1286q10,29 3,41t-43,18q-27,5-38,12.5T474,1376t10,17.5t30,6.5H851q20,0 29.5-6.5T890,1377q0-12-10-19.5T843,1346q-30-5-36-14.5t2-32.5L1212,128q10-33 29.5-49T1299,56q25-5 33-12t8-18q0-12-10-19t-29-7H948q-19,0-29,7T909,26q0,10 8,17t26,10l83,10q26,4 28,19t-9,49L633,1335l25,9L260,168q-11-32-11-52.5T262,83t40-19l79-11q19-4 27-10t8-17ZM798,1667q33,37 60.5,57.5T918,1737q27-7 39-28.5t6-44.5q-7-27-30.5-45.5T874,1581L678,1474q-8-4-17-3.5t-15,5.5q-6,8-2.5,15.5T653,1506l145,161Z" />
      <glyph unicode="&#xc2;" glyph-name="gid181" horiz-adv-x="1376" d="M342,544H943l8-64H330l12,64ZM416,26q0-12-9.5-19T377,0H71Q51,0 41.5,7T32,25q0,9 7,15T66,53l44,13q28,10 41,28.5T180,162L563,1286q10,29 3,41t-43,18q-27,5-38,12.5T474,1376t10,17.5t30,6.5H851q20,0 29.5-6.5T890,1377q0-12-10-19.5T843,1346q-30-5-36-14.5t2-32.5L1212,128q10-33 29.5-49T1299,56q25-5 33-12t8-18q0-12-10-19t-29-7H948q-19,0-29,7T909,26q0,10 8,17t26,10l83,10q26,4 28,19t-9,49L633,1335l25,9L260,168q-11-32-11-52.5T262,83t40-19l79-11q19-4 27-10t8-17ZM705,1635H662l222-150q26-16 40-5q6,4 6.5,13.5T922,1513L738,1711q-14,16-25,25t-28,9t-29.5-9T628,1711L446,1513q-11-10-10-19.5t7-13.5q15-11 40,5l222,150Z" />
      <glyph unicode="&#xc3;" glyph-name="gid182" horiz-adv-x="1376" d="M342,544H943l8-64H330l12,64ZM416,26q0-12-9.5-19T377,0H71Q51,0 41.5,7T32,25q0,9 7,15T66,53l44,13q28,10 41,28.5T180,162L563,1286q10,29 3,41t-43,18q-27,5-38,12.5T474,1376t10,17.5t30,6.5H851q20,0 29.5-6.5T890,1377q0-12-10-19.5T843,1346q-30-5-36-14.5t2-32.5L1212,128q10-33 29.5-49T1299,56q25-5 33-12t8-18q0-12-10-19t-29-7H948q-19,0-29,7T909,26q0,10 8,17t26,10l83,10q26,4 28,19t-9,49L633,1335l25,9L260,168q-11-32-11-52.5T262,83t40-19l79-11q19-4 27-10t8-17ZM805,1490q-41,0-74,16.5t-62,38t-55.5,38T559,1599q-62,0-65-88q-3-26-27-26q-27,0-27,33q0,88 34.5,131t94.5,43q41,0 74-16.5t61.5-37.5t55.5-37.5t55-16.5q62,0 66,87q2,26 27,26t25-33q0-88-34-131t-94-43Z" />
      <glyph unicode="&#xc4;" glyph-name="gid183" horiz-adv-x="1376" d="M342,544H943l8-64H330l12,64ZM416,26q0-12-9.5-19T377,0H71Q51,0 41.5,7T32,25q0,9 7,15T66,53l44,13q28,10 41,28.5T180,162L563,1286q10,29 3,41t-43,18q-27,5-38,12.5T474,1376t10,17.5t30,6.5H851q20,0 29.5-6.5T890,1377q0-12-10-19.5T843,1346q-30-5-36-14.5t2-32.5L1212,128q10-33 29.5-49T1299,56q25-5 33-12t8-18q0-12-10-19t-29-7H948q-19,0-29,7T909,26q0,10 8,17t26,10l83,10q26,4 28,19t-9,49L633,1335l25,9L260,168q-11-32-11-52.5T262,83t40-19l79-11q19-4 27-10t8-17Zm92,1473q-41,0-66,26t-25,65t25,64.5t66,25.5t65.5-25.5T598,1589q0-38-24.5-64T508,1499Zm348,0q-40,0-64.5,26T767,1590t24.5,64.5T856,1680q42,0 67-25.5t25-65.5q0-38-25-64t-67-26Z" />
      <glyph unicode="&#xc5;" glyph-name="gid184" horiz-adv-x="1376" d="M342,544H943l8-64H330l12,64ZM416,26q0-12-9.5-19T377,0H71Q51,0 41.5,7T32,25q0,9 7,15T66,53l44,13q28,10 41,28.5T180,162L563,1286q10,29 3,41t-43,18q-27,5-38,12.5T474,1376t10,17.5t30,6.5H851q20,0 29.5-6.5T890,1377q0-12-10-19.5T843,1346q-30-5-36-14.5t2-32.5L1212,128q10-33 29.5-49T1299,56q25-5 33-12t8-18q0-12-10-19t-29-7H948q-19,0-29,7T909,26q0,10 8,17t26,10l83,10q26,4 28,19t-9,49L633,1335l25,9L260,168q-11-32-11-52.5T262,83t40-19l79-11q19-4 27-10t8-17ZM685,1471q-75,0-127,46.5T506,1634q0,69 52,115t127,46t126.5-46.5T863,1634q0-69-51.5-116T685,1471Zm0,274q-43,0-73.5-31.5T581,1634t30.5-80t73.5-32q44,0 73.5,32.5T788,1634q0,48-29.5,79.5T685,1745Z" />
      <glyph unicode="&#xc6;" glyph-name="gid174" horiz-adv-x="1902" d="M1022,1400l-8-56H917L259,168q-25-47-18.5-71T285,64l77-11q17-4 26.5-10T398,26q0-12-10-19T358,0H43Q25,0 15,7T5,26Q5,41 39,53L79,65q28,9 47.5,30.5T171,162L803,1286q16,29 5.5,41T765,1345q-25,5-37.5,12T715,1374q0,13 10,19.5t30,6.5h267ZM437,602H999l8-64H425l12,64Zm608,123h345q62,0 85.5,23.5T1504,840q4,32 28,36q25,5 33-28l74-277q8-32-18-39t-41,20q-23,47-42.5,71T1493,655.5t-62,8.5H1045v61ZM948,116V1400h610q26,0 43.5,11.5t32.5,22t34,10.5q16,0 25.5-8.5T1708,1405l75-279q5-15-0.5-25t-19.5-14q-15-3-27.5,3t-19.5,23q-32,75-58.5,120t-53.5,68t-61,30.5t-82,7.5H1104V138q0-39 26.5-58T1214,61h281q62,0 103.5,20.5T1678,164t88,187q6,14 15,19.5t21,4.5q16-2 22-12.5t1-28.5L1748,4q-5-22-15.5-31.5T1703-37q-16,0-31.5,9t-33,18.5T1596,0H827q-19,0-27.5,7T791,26q0,22 33,29l75,12q24,4 36.5,16.5T948,116Z" />
      <glyph unicode="&#xc7;" glyph-name="gid185" horiz-adv-x="1375" d="M1300,335q0-62-36-127T1160.5,88T996-1T774-35Q565-35 414,58.5t-233,257T99,690q0,161 48.5,296T283,1221t206,154.5T748,1430q108,0 175.5-23t105-46.5T1083,1337q22,0 29.5,19.5t15,38.5t29.5,19q11,0 18.5-6.5T1188,1384l108-335q6-16-1.5-28t-23.5-13q-14-2-24.5,4.5T1229,1033q-57,118-126.5,192.5t-155,109T755,1369q-105,0-196-45.5T400.5,1194T295,993.5T257,734q0-211 74-362T531,141T815,61q162,0 272,72.5T1249,332q7,14 15,20t18,5q8-1 13-6t5-16ZM741,11h54L713-143l-30,11q13,1 27.5,2t31.5,1q84,0 133-40.5T924-275q0-70-51-113T737-431q-73,0-122,31.5T563-320q-1,13 6,20.5t16,8.5q11,0 18.5-5T615-310q10-39 42-55.5T727-382q92,0 92,105q0,46-25,74.5T720-174H684q-19,0-24,11.5t3,26.5L741,11Z" />
      <glyph unicode="&#xc8;" glyph-name="gid187" horiz-adv-x="1261" d="M375,725H749q62,0 85.5,23.5T863,840q2,16 8.5,24.5T891,876q25,5 33-28l74-277q4-16 0-26t-18-13q-12-3-23,2t-18,18q-23,47-42.5,71T852,655.5T790,664H375v61ZM121,1374q0,13 8.5,19.5T157,1400H919q26,0 43.5,11.5t32.5,22t33,10.5q17,0 26-8.5t15-30.5l75-279q4-15-1-25t-19-14q-15-3-27.5,3t-20.5,23q-32,75-58,120t-53.5,68T903,1331.5t-82,7.5H434V138q0-39 26-58t83-19H850q61,0 102.5,20.5t80,82.5T1120,351q6,14 15.5,19.5T1157,375q15-2 21-12.5t2-28.5L1103,4q-6-22-16.5-31.5T1058-37q-16,0-31.5,9T993-9.5T951,0H157q-19,0-27.5,7T121,26q0,22 32,29l76,12q24,4 36.5,16.5T278,116V1284q0,20-12.5,32.5T229,1333l-76,12q-32,7-32,29Zm459,293l145-161q6-7 9.5-14.5T732,1476q-6-5-15-5.5t-17,3.5L504,1581q-35,19-58.5,37.5T416,1664q-8,23 4,44.5t40,28.5q32,8 59.5-12.5T580,1667Z" />
      <glyph unicode="&#xc9;" glyph-name="gid186" horiz-adv-x="1261" d="M375,725H749q62,0 85.5,23.5T863,840q2,16 8.5,24.5T891,876q25,5 33-28l74-277q4-16 0-26t-18-13q-12-3-23,2t-18,18q-23,47-42.5,71T852,655.5T790,664H375v61ZM121,1374q0,13 8.5,19.5T157,1400H919q26,0 43.5,11.5t32.5,22t33,10.5q17,0 26-8.5t15-30.5l75-279q4-15-1-25t-19-14q-15-3-27.5,3t-20.5,23q-32,75-58,120t-53.5,68T903,1331.5t-82,7.5H434V138q0-39 26-58t83-19H850q61,0 102.5,20.5t80,82.5T1120,351q6,14 15.5,19.5T1157,375q15-2 21-12.5t2-28.5L1103,4q-6-22-16.5-31.5T1058-37q-16,0-31.5,9T993-9.5T951,0H157q-19,0-27.5,7T121,26q0,22 32,29l76,12q24,4 36.5,16.5T278,116V1284q0,20-12.5,32.5T229,1333l-76,12q-32,7-32,29Zm634,293q33,37 60.5,57.5T875,1737q27-7 39-28.5t6-44.5q-7-27-30.5-45.5T831,1581L635,1474q-8-4-17-3.5t-15,5.5q-6,8-2.5,15.5T610,1506l145,161Z" />
      <glyph unicode="&#xca;" glyph-name="gid188" horiz-adv-x="1261" d="M375,725H749q62,0 85.5,23.5T863,840q2,16 8.5,24.5T891,876q25,5 33-28l74-277q4-16 0-26t-18-13q-12-3-23,2t-18,18q-23,47-42.5,71T852,655.5T790,664H375v61ZM121,1374q0,13 8.5,19.5T157,1400H919q26,0 43.5,11.5t32.5,22t33,10.5q17,0 26-8.5t15-30.5l75-279q4-15-1-25t-19-14q-15-3-27.5,3t-20.5,23q-32,75-58,120t-53.5,68T903,1331.5t-82,7.5H434V138q0-39 26-58t83-19H850q61,0 102.5,20.5t80,82.5T1120,351q6,14 15.5,19.5T1157,375q15-2 21-12.5t2-28.5L1103,4q-6-22-16.5-31.5T1058-37q-16,0-31.5,9T993-9.5T951,0H157q-19,0-27.5,7T121,26q0,22 32,29l76,12q24,4 36.5,16.5T278,116V1284q0,20-12.5,32.5T229,1333l-76,12q-32,7-32,29Zm545,261H623l222-150q26-16 40-5q6,4 6.5,13.5T883,1513L699,1711q-14,16-25,25t-28,9t-29.5-9T589,1711L407,1513q-11-10-10-19.5t7-13.5q15-11 40,5l222,150Z" />
      <glyph unicode="&#xcb;" glyph-name="gid189" horiz-adv-x="1261" d="M375,725H749q62,0 85.5,23.5T863,840q2,16 8.5,24.5T891,876q25,5 33-28l74-277q4-16 0-26t-18-13q-12-3-23,2t-18,18q-23,47-42.5,71T852,655.5T790,664H375v61ZM121,1374q0,13 8.5,19.5T157,1400H919q26,0 43.5,11.5t32.5,22t33,10.5q17,0 26-8.5t15-30.5l75-279q4-15-1-25t-19-14q-15-3-27.5,3t-20.5,23q-32,75-58,120t-53.5,68T903,1331.5t-82,7.5H434V138q0-39 26-58t83-19H850q61,0 102.5,20.5t80,82.5T1120,351q6,14 15.5,19.5T1157,375q15-2 21-12.5t2-28.5L1103,4q-6-22-16.5-31.5T1058-37q-16,0-31.5,9T993-9.5T951,0H157q-19,0-27.5,7T121,26q0,22 32,29l76,12q24,4 36.5,16.5T278,116V1284q0,20-12.5,32.5T229,1333l-76,12q-32,7-32,29Zm349,125q-41,0-66,26t-25,65t25,64.5t66,25.5t65.5-25.5T560,1589q0-38-24.5-64T470,1499Zm348,0q-40,0-64.5,26T729,1590t24.5,64.5T818,1680q42,0 67-25.5t25-65.5q0-38-25-64t-67-26Z" />
      <glyph unicode="&#xcc;" glyph-name="gid191" horiz-adv-x="709" d="M433,116q0-20 12.5-32.5T482,67l75-12q33-7 33-29q0-12-8.5-19T554,0H155q-18,0-27,7t-9,19q0,22 33,29l76,12q23,4 35.5,16.5T276,116V1284q0,20-12.5,32.5T228,1333l-76,12q-33,7-33,29q0,13 9,19.5t27,6.5H554q19,0 27.5-6.5T590,1374q0-22-33-29l-75-12q-24-4-36.5-16.5T433,1284V116ZM291,1667l145-161q6-7 9.5-14.5T443,1476q-6-5-15-5.5t-17,3.5L215,1581q-35,19-58.5,37.5T127,1664q-8,23 4,44.5t40,28.5q32,8 59.5-12.5T291,1667Z" />
      <glyph unicode="&#xcd;" glyph-name="gid190" horiz-adv-x="709" d="M433,116q0-20 12.5-32.5T482,67l75-12q33-7 33-29q0-12-8.5-19T554,0H155q-18,0-27,7t-9,19q0,22 33,29l76,12q23,4 35.5,16.5T276,116V1284q0,20-12.5,32.5T228,1333l-76,12q-33,7-33,29q0,13 9,19.5t27,6.5H554q19,0 27.5-6.5T590,1374q0-22-33-29l-75-12q-24-4-36.5-16.5T433,1284V116Zm32,1551q33,37 60.5,57.5T585,1737q27-7 39-28.5t6-44.5q-7-27-30.5-45.5T541,1581L345,1474q-8-4-17-3.5t-15,5.5q-6,8-2.5,15.5T320,1506l145,161Z" />
      <glyph unicode="&#xce;" glyph-name="gid192" horiz-adv-x="709" d="M433,116q0-20 12.5-32.5T482,67l75-12q33-7 33-29q0-12-8.5-19T554,0H155q-18,0-27,7t-9,19q0,22 33,29l76,12q23,4 35.5,16.5T276,116V1284q0,20-12.5,32.5T228,1333l-76,12q-33,7-33,29q0,13 9,19.5t27,6.5H554q19,0 27.5-6.5T590,1374q0-22-33-29l-75-12q-24-4-36.5-16.5T433,1284V116ZM376,1635H333l222-150q26-16 40-5q6,4 6.5,13.5T593,1513L409,1711q-14,16-25,25t-28,9t-29.5-9T299,1711L117,1513q-11-10-10-19.5t7-13.5q15-11 40,5l222,150Z" />
      <glyph unicode="&#xcf;" glyph-name="gid193" horiz-adv-x="709" d="M433,116q0-20 12.5-32.5T482,67l75-12q33-7 33-29q0-12-8.5-19T554,0H155q-18,0-27,7t-9,19q0,22 33,29l76,12q23,4 35.5,16.5T276,116V1284q0,20-12.5,32.5T228,1333l-76,12q-33,7-33,29q0,13 9,19.5t27,6.5H554q19,0 27.5-6.5T590,1374q0-22-33-29l-75-12q-24-4-36.5-16.5T433,1284V116ZM180,1499q-41,0-66,26t-25,65t25,64.5t66,25.5t65.5-25.5T270,1589q0-38-24.5-64T180,1499Zm348,0q-40,0-64.5,26T439,1590t24.5,64.5T528,1680q42,0 67-25.5t25-65.5q0-38-25-64t-67-26Z" />
      <glyph unicode="&#xd0;" glyph-name="gid177" horiz-adv-x="1525" d="M102,715q0,11 7.5,18t21.5,7H767q15,0 22.5-7t7.5-18q0-12-7.5-18.5T767,690H131q-14,0-21.5,6.5T102,715ZM119,26q0,22 33,29l76,12q23,4 35.5,16.5T276,116V1284q0,20-12.5,32.5T228,1333l-76,12q-33,7-33,29q0,13 9,19.5t27,6.5H598q187,0 340.5-54t264-152.5t169.5-233T1431,666q0-192-87-342.5t-253.5-237T685,0H155q-18,0-27,7t-9,19ZM683,60q183,0 313,72.5t199.5,209T1265,672q0,151-48,273.5T1079.5,1156t-216,136T580,1340H433V135q0-38 25-56.5T537,60H683Z" />
      <glyph unicode="&#xd1;" glyph-name="gid194" horiz-adv-x="1557" d="M537,26q0-12-10-19T497,0H145q-19,0-29,7T106,26q0,19 32,28l71,18q46,13 60.5,27.5T284,150v988q0,27-8.5,47T235,1242l-92,107q-10,14-14,20.5t-4,12.5q0,9 7.5,13.5T152,1400H270q20,0 34.5-7.5T335,1364L1243,219l-36-58V1250q0,35-14,50.5t-61,27.5l-73,18q-32,10-32,28q0,13 10,19.5t30,6.5h352q19,0 29-6.5t10-19.5q0-18-32-28l-71-18q-46-12-60.5-27t-14.5-51V208q0-26 5-41t17-30l61-77q12-15 15.5-23t3.5-16q0-9-7-15t-24-6H1210q-30,0-30,25q0,14-5,25.5T1145,93L307,1156l50,45V150q0-35 14-50t61-28l73-18q32-10 32-28ZM894,1490q-41,0-74,16.5t-62,38t-55.5,38T648,1599q-62,0-65-88q-3-26-27-26q-27,0-27,33q0,88 34.5,131t94.5,43q41,0 74-16.5t61.5-37.5t55.5-37.5t55-16.5q62,0 66,87q2,26 27,26t25-33q0-88-34-131t-94-43Z" />
      <glyph unicode="&#xd2;" glyph-name="gid196" horiz-adv-x="1582" d="M788,1431q154,0 281-55t219.5-155T1431,986t50-296q0-160-50-293T1288.5,167.5T1068.5,18T787-35Q636-35 510,20T292,175T149.5,410.5T99,707q0,160 50,292.5t142,229T509.5,1378T788,1431Zm533-821q0,131-28,245.5t-79,207T1092,1222T934,1324.5T748,1360q-143,0-252.5-69.5T324,1092.5T262,787q0-132 27.5-247t78-208t121-160.5T646,68.5T831,33q145,0 255.5,70T1259,302.5T1321,610ZM725,1667l145-161q6-7 9.5-14.5T877,1476q-6-5-15-5.5t-17,3.5L649,1581q-35,19-58.5,37.5T561,1664q-8,23 4,44.5t40,28.5q32,8 59.5-12.5T725,1667Z" />
      <glyph unicode="&#xd3;" glyph-name="gid195" horiz-adv-x="1582" d="M788,1431q154,0 281-55t219.5-155T1431,986t50-296q0-160-50-293T1288.5,167.5T1068.5,18T787-35Q636-35 510,20T292,175T149.5,410.5T99,707q0,160 50,292.5t142,229T509.5,1378T788,1431Zm533-821q0,131-28,245.5t-79,207T1092,1222T934,1324.5T748,1360q-143,0-252.5-69.5T324,1092.5T262,787q0-132 27.5-247t78-208t121-160.5T646,68.5T831,33q145,0 255.5,70T1259,302.5T1321,610ZM901,1671q33,37 60.5,57.5T1021,1741q27-7 39-28.5t6-44.5q-7-27-30.5-45.5T977,1585L781,1478q-8-4-17-3.5t-15,5.5q-6,8-2.5,15.5T756,1510l145,161Z" />
      <glyph unicode="&#xd4;" glyph-name="gid197" horiz-adv-x="1582" d="M788,1431q154,0 281-55t219.5-155T1431,986t50-296q0-160-50-293T1288.5,167.5T1068.5,18T787-35Q636-35 510,20T292,175T149.5,410.5T99,707q0,160 50,292.5t142,229T509.5,1378T788,1431Zm533-821q0,131-28,245.5t-79,207T1092,1222T934,1324.5T748,1360q-143,0-252.5-69.5T324,1092.5T262,787q0-132 27.5-247t78-208t121-160.5T646,68.5T831,33q145,0 255.5,70T1259,302.5T1321,610ZM812,1635H769l222-150q26-16 40-5q6,4 6.5,13.5T1029,1513L845,1711q-14,16-25,25t-28,9t-29.5-9T735,1711L553,1513q-11-10-10-19.5t7-13.5q15-11 40,5l222,150Z" />
      <glyph unicode="&#xd5;" glyph-name="gid198" horiz-adv-x="1582" d="M788,1431q154,0 281-55t219.5-155T1431,986t50-296q0-160-50-293T1288.5,167.5T1068.5,18T787-35Q636-35 510,20T292,175T149.5,410.5T99,707q0,160 50,292.5t142,229T509.5,1378T788,1431Zm533-821q0,131-28,245.5t-79,207T1092,1222T934,1324.5T748,1360q-143,0-252.5-69.5T324,1092.5T262,787q0-132 27.5-247t78-208t121-160.5T646,68.5T831,33q145,0 255.5,70T1259,302.5T1321,610ZM909,1494q-41,0-74,16.5t-62,38t-55.5,38T663,1603q-62,0-65-88q-3-26-27-26q-27,0-27,33q0,88 34.5,131t94.5,43q41,0 74-16.5t61.5-37.5t55.5-37.5t55-16.5q62,0 66,87q2,26 27,26t25-33q0-88-34-131t-94-43Z" />
      <glyph unicode="&#xd6;" glyph-name="gid199" horiz-adv-x="1582" d="M788,1431q154,0 281-55t219.5-155T1431,986t50-296q0-160-50-293T1288.5,167.5T1068.5,18T787-35Q636-35 510,20T292,175T149.5,410.5T99,707q0,160 50,292.5t142,229T509.5,1378T788,1431Zm533-821q0,131-28,245.5t-79,207T1092,1222T934,1324.5T748,1360q-143,0-252.5-69.5T324,1092.5T262,787q0-132 27.5-247t78-208t121-160.5T646,68.5T831,33q145,0 255.5,70T1259,302.5T1321,610ZM616,1499q-41,0-66,26t-25,65t25,64.5t66,25.5t65.5-25.5T706,1589q0-38-24.5-64T616,1499Zm348,0q-40,0-64.5,26T875,1590t24.5,64.5T964,1680q42,0 67-25.5t25-65.5q0-38-25-64t-67-26Z" />
      <glyph unicode="&#xd7;" glyph-name="gid123" horiz-adv-x="965" d="M165,318q-28,24 1,49l577,671q14,13 28,14t29-9q15-12 15.5-23.5T801,994L225,323q-14-11-29.5-13T165,318Zm632,1q-15-10-31.5-8.5T738,322L164,989q-14,14-13.5,27t15.5,23q27,21 57-5L798,367q14-13 13.5-24.5T797,319Z" />
      <glyph unicode="&#xd8;" glyph-name="gid178" horiz-adv-x="1582" d="M141-29q-9,8-9,18t8,18L1401,1425q9,10 20,11.5t20-6.5t9.5-17.5T1442,1394L181-24q-9-10-19.5-11.5T141-29ZM788,1431q154,0 281-55t219.5-155T1431,986t50-296q0-160-50-293T1288.5,167.5T1068.5,18T787-35Q636-35 510,20T292,175T149.5,410.5T99,707q0,160 50,292.5t142,229T509.5,1378T788,1431Zm533-821q0,131-28,245.5t-79,207T1092,1222T934,1324.5T748,1360q-143,0-252.5-69.5T324,1092.5T262,787q0-132 27.5-247t78-208t121-160.5T646,68.5T831,33q145,0 255.5,70T1259,302.5T1321,610Z" />
      <glyph unicode="&#xd9;" glyph-name="gid201" horiz-adv-x="1471" d="M1168,579l-35,685q-1,30-18.5,46.5T1058,1335l-65,10q-24,5-31.5,12.5T954,1375q0,11 10,18t27,7h351q19,0 28.5-7t9.5-18t-8-18.5t-31-11.5l-61-9q-42-7-58-26.5t-14-48.5l34-686q3-49 5.5-96t4.5-98q5-121-50-214T1035.5,21T760-32Q582-32 461,19T280,161.5T224,377q1,30 3.5,75.5t5.5,96t4,93.5l32,631q2,28-15.5,42.5T201,1335l-61,10q-40,8-40,29q0,12 10,19t29,7H557q18,0 28-7t10-19q0-10-8.5-17T555,1346l-62-11q-33-5-48.5-18T427,1275L395,649q-4-77-6.5-138.5T384,395q-5-176 102-266T784,39q126,0 215,41t136,117t42,181q-2,68-4.5,114.5T1168,579ZM707,1667l145-161q6-7 9.5-14.5T859,1476q-6-5-15-5.5t-17,3.5L631,1581q-35,19-58.5,37.5T543,1664q-8,23 4,44.5t40,28.5q32,8 59.5-12.5T707,1667Z" />
      <glyph unicode="&#xda;" glyph-name="gid200" horiz-adv-x="1471" d="M1168,579l-35,685q-1,30-18.5,46.5T1058,1335l-65,10q-24,5-31.5,12.5T954,1375q0,11 10,18t27,7h351q19,0 28.5-7t9.5-18t-8-18.5t-31-11.5l-61-9q-42-7-58-26.5t-14-48.5l34-686q3-49 5.5-96t4.5-98q5-121-50-214T1035.5,21T760-32Q582-32 461,19T280,161.5T224,377q1,30 3.5,75.5t5.5,96t4,93.5l32,631q2,28-15.5,42.5T201,1335l-61,10q-40,8-40,29q0,12 10,19t29,7H557q18,0 28-7t10-19q0-10-8.5-17T555,1346l-62-11q-33-5-48.5-18T427,1275L395,649q-4-77-6.5-138.5T384,395q-5-176 102-266T784,39q126,0 215,41t136,117t42,181q-2,68-4.5,114.5T1168,579ZM881,1667q33,37 60.5,57.5T1001,1737q27-7 39-28.5t6-44.5q-7-27-30.5-45.5T957,1581L761,1474q-8-4-17-3.5t-15,5.5q-6,8-2.5,15.5T736,1506l145,161Z" />
      <glyph unicode="&#xdb;" glyph-name="gid202" horiz-adv-x="1471" d="M1168,579l-35,685q-1,30-18.5,46.5T1058,1335l-65,10q-24,5-31.5,12.5T954,1375q0,11 10,18t27,7h351q19,0 28.5-7t9.5-18t-8-18.5t-31-11.5l-61-9q-42-7-58-26.5t-14-48.5l34-686q3-49 5.5-96t4.5-98q5-121-50-214T1035.5,21T760-32Q582-32 461,19T280,161.5T224,377q1,30 3.5,75.5t5.5,96t4,93.5l32,631q2,28-15.5,42.5T201,1335l-61,10q-40,8-40,29q0,12 10,19t29,7H557q18,0 28-7t10-19q0-10-8.5-17T555,1346l-62-11q-33-5-48.5-18T427,1275L395,649q-4-77-6.5-138.5T384,395q-5-176 102-266T784,39q126,0 215,41t136,117t42,181q-2,68-4.5,114.5T1168,579ZM792,1635H749l222-150q26-16 40-5q6,4 6.5,13.5T1009,1513L825,1711q-14,16-25,25t-28,9t-29.5-9T715,1711L533,1513q-11-10-10-19.5t7-13.5q15-11 40,5l222,150Z" />
      <glyph unicode="&#xdc;" glyph-name="gid203" horiz-adv-x="1471" d="M1168,579l-35,685q-1,30-18.5,46.5T1058,1335l-65,10q-24,5-31.5,12.5T954,1375q0,11 10,18t27,7h351q19,0 28.5-7t9.5-18t-8-18.5t-31-11.5l-61-9q-42-7-58-26.5t-14-48.5l34-686q3-49 5.5-96t4.5-98q5-121-50-214T1035.5,21T760-32Q582-32 461,19T280,161.5T224,377q1,30 3.5,75.5t5.5,96t4,93.5l32,631q2,28-15.5,42.5T201,1335l-61,10q-40,8-40,29q0,12 10,19t29,7H557q18,0 28-7t10-19q0-10-8.5-17T555,1346l-62-11q-33-5-48.5-18T427,1275L395,649q-4-77-6.5-138.5T384,395q-5-176 102-266T784,39q126,0 215,41t136,117t42,181q-2,68-4.5,114.5T1168,579ZM596,1499q-41,0-66,26t-25,65t25,64.5t66,25.5t65.5-25.5T686,1589q0-38-24.5-64T596,1499Zm348,0q-40,0-64.5,26T855,1590t24.5,64.5T944,1680q42,0 67-25.5t25-65.5q0-38-25-64t-67-26Z" />
      <glyph unicode="&#xdd;" glyph-name="gid204" horiz-adv-x="1344" d="M747,462L634,427L176,1284q-13,27-26,37.5T115,1337l-35,8q-23,6-30.5,12.5T42,1374q0,13 10,19.5t30,6.5H472q20,0 32-6.5t12-19.5q0-22-46-30l-69-10q-42-7-52-20.5t4-41.5L742,527l-57-37l392,745q23,42 13,67t-58,33l-79,11q-16,3-24.5,10t-8.5,18q0,13 10,19.5t28,6.5h316q20,0 30.5-6.5T1315,1374q0-10-7.5-16.5T1276,1345l-15-5q-21-5-37-15.5t-32-31.5t-36-61L747,462ZM606,505H762V116q0-20 13-32.5T811,67l76-12q33-7 33-29q0-12-8.5-19T883,0H485q-19,0-27.5,7T449,26q0,22 33,29l75,12q24,4 36.5,16.5T606,116V505ZM834,1667q33,37 60.5,57.5T954,1737q27-7 39-28.5t6-44.5q-7-27-30.5-45.5T910,1581L714,1474q-8-4-17-3.5t-15,5.5q-6,8-2.5,15.5T689,1506l145,161Z" />
      <glyph unicode="&#xde;" glyph-name="gid176" horiz-adv-x="1266" d="M356,1066v57H587q179,0 310-54t202.5-150T1171,699q0-123-62-213T936,347.5T680,299q-66,0-126,9.5t-111,27T350,378l13,53q34-22 81.5-38.5t101.5-26T655,357q156,0 250,90t94,252q0,165-117,266T549,1066H356Zm75-950q0-21 13-32.5T479,67l76-13q17-5 25-11.5T588,25T579.5,7T552,0H155q-18,0-27,7t-9,19q0,21 33,29l76,12q23,4 35.5,16T276,116V1284q0,21-12.5,33T228,1333l-76,12q-33,8-33,29q0,13 9,19.5t27,6.5H552q19,0 27.5-6.5T588,1375q0-10-8-17t-25-12l-76-13q-22-5-35-16.5T431,1284V116Z" />
      <glyph unicode="&#xdf;" glyph-name="gid210" horiz-adv-x="1233" d="M1168,342q0,123-67,221T918,717.5T654,772l-3-16q129,9 223.5,58.5t145,127T1070,1113q0,96-43,167.5t-125.5,112T701,1433q-138,0-237-56.5t-151-163T261,956V881l30,44H132q-15,0-23.5-5.5T100,903t10.5-19T149,869l64-14q25-7 36-19t11-36V113q0-22-13-34T211,62L152,51q-33-7-33-28q0-10 9-16.5T153,0H347q31,0 40.5,14.5T397,62V955q0,206 75,314.5T692,1378q109,0 175.5-68T934,1115q0-84-32.5-152.5T795.5,849T599,786q-18-5-25.5-12.5T566,755q0-14 10.5-21.5T620,723q119-3 212-52T978.5,535.5T1032,331q0-131-57.5-208.5T813,45q-74,0-123,41T614,214l-17,44q-6,14-14,21t-19,7t-19-8t-8-23V13q0-15 8-24t21-9T588-9.5t17,25t16.5,25T641,50q14,0 37-18T741-4T843-22q101,0 173.5,46.5t112,129T1168,342Z" />
      <glyph unicode="&#xe0;" glyph-name="gid218" horiz-adv-x="1045" d="M708,119v18l-6,8V691q0,103-51,156.5T505,901q-93,0-137-37.5T324,775V707q0-37-23-56t-62-19q-34,0-54,20.5T165,707q0,60 44.5,115.5t126.5,91T532,949q156,0 232.5-72T841,686V124q0-37 13.5-52.5T890,56q27,0 38,12t19,24q4,6 8.5,10.5T968,107t12-6t4-17q0-24-15.5-48t-45-40.5T850-21q-69,0-105.5,34T708,119ZM117,206q0,113 100,187.5T493,468q72,0 133-14.5T735,418l-10-43q-48,19-100,32.5T512,421q-116,0-181-52.5T266,227q0-85 51.5-131T449,50q79,0 153,35.5T731,190l19-36Q687,70 593.5,24.5T396-21Q273-21 195,39.5T117,206ZM463,1259l118-188q5-8 7-16.5t-6-14.5q-5-6-14-5t-18,5L373,1184q-32,24-52.5,46.5T297,1280q-4,25 11,46t45,24q35,5 59.5-20.5T463,1259Z" />
      <glyph unicode="&#xe1;" glyph-name="gid217" horiz-adv-x="1045" d="M708,119v18l-6,8V691q0,103-51,156.5T505,901q-93,0-137-37.5T324,775V707q0-37-23-56t-62-19q-34,0-54,20.5T165,707q0,60 44.5,115.5t126.5,91T532,949q156,0 232.5-72T841,686V124q0-37 13.5-52.5T890,56q27,0 38,12t19,24q4,6 8.5,10.5T968,107t12-6t4-17q0-24-15.5-48t-45-40.5T850-21q-69,0-105.5,34T708,119ZM117,206q0,113 100,187.5T493,468q72,0 133-14.5T735,418l-10-43q-48,19-100,32.5T512,421q-116,0-181-52.5T266,227q0-85 51.5-131T449,50q79,0 153,35.5T731,190l19-36Q687,70 593.5,24.5T396-21Q273-21 195,39.5T117,206ZM613,1259q26,45 51,70.5t59,20.5q30-3 45-24t12-46q-4-27-24.5-49.5T702,1184L525,1040q-7-4-15.5-5t-15.5,5q-8,6-5.5,14.5T496,1071l117,188Z" />
      <glyph unicode="&#xe2;" glyph-name="gid219" horiz-adv-x="1045" d="M708,119v18l-6,8V691q0,103-51,156.5T505,901q-93,0-137-37.5T324,775V707q0-37-23-56t-62-19q-34,0-54,20.5T165,707q0,60 44.5,115.5t126.5,91T532,949q156,0 232.5-72T841,686V124q0-37 13.5-52.5T890,56q27,0 38,12t19,24q4,6 8.5,10.5T968,107t12-6t4-17q0-24-15.5-48t-45-40.5T850-21q-69,0-105.5,34T708,119ZM117,206q0,113 100,187.5T493,468q72,0 133-14.5T735,418l-10-43q-48,19-100,32.5T512,421q-116,0-181-52.5T266,227q0-85 51.5-131T449,50q79,0 153,35.5T731,190l19-36Q687,70 593.5,24.5T396-21Q273-21 195,39.5T117,206ZM542,1223H499l226-179q11-7 21.5-8.5T764,1039q6,5 6,14t-9,20L576,1300q-14,16-26,24.5t-29,8.5t-30-8.5T464,1300L280,1073q-10-11-9.5-20t6.5-14q8-5 18-3.5t21,8.5l226,179Z" />
      <glyph unicode="&#xe3;" glyph-name="gid220" horiz-adv-x="1045" d="M708,119v18l-6,8V691q0,103-51,156.5T505,901q-93,0-137-37.5T324,775V707q0-37-23-56t-62-19q-34,0-54,20.5T165,707q0,60 44.5,115.5t126.5,91T532,949q156,0 232.5-72T841,686V124q0-37 13.5-52.5T890,56q27,0 38,12t19,24q4,6 8.5,10.5T968,107t12-6t4-17q0-24-15.5-48t-45-40.5T850-21q-69,0-105.5,34T708,119ZM117,206q0,113 100,187.5T493,468q72,0 133-14.5T735,418l-10-43q-48,19-100,32.5T512,421q-116,0-181-52.5T266,227q0-85 51.5-131T449,50q79,0 153,35.5T731,190l19-36Q687,70 593.5,24.5T396-21Q273-21 195,39.5T117,206Zm522,841q-40,0-74,17.5T502.5,1105t-56,41T390,1164q-31,0-47.5-23.5T324,1070q-3-26-26-26q-26,0-26,33q0,92 35,137.5t95,45.5q41,0 74.5-17.5t62-40.5t56-41t56.5-18q32,0 48,24t18,70q3,27 26,27q25,0 25-34q0-92-34.5-137.5T639,1047Z" />
      <glyph unicode="&#xe4;" glyph-name="gid221" horiz-adv-x="1045" d="M708,119v18l-6,8V691q0,103-51,156.5T505,901q-93,0-137-37.5T324,775V707q0-37-23-56t-62-19q-34,0-54,20.5T165,707q0,60 44.5,115.5t126.5,91T532,949q156,0 232.5-72T841,686V124q0-37 13.5-52.5T890,56q27,0 38,12t19,24q4,6 8.5,10.5T968,107t12-6t4-17q0-24-15.5-48t-45-40.5T850-21q-69,0-105.5,34T708,119ZM117,206q0,113 100,187.5T493,468q72,0 133-14.5T735,418l-10-43q-48,19-100,32.5T512,421q-116,0-181-52.5T266,227q0-85 51.5-131T449,50q79,0 153,35.5T731,190l19-36Q687,70 593.5,24.5T396-21Q273-21 195,39.5T117,206Zm229,856q-40,0-65,26.5T256,1155t25,66.5t65,26.5q41,0 65-26.5t24-67.5q0-39-24-65.5T346,1062Zm348,0q-40,0-65,26.5T604,1155t25,66.5t65,26.5q42,0 66-26.5t24-67.5q0-39-24-65.5T694,1062Z" />
      <glyph unicode="&#xe5;" glyph-name="gid222" horiz-adv-x="1045" d="M708,119v18l-6,8V691q0,103-51,156.5T505,901q-93,0-137-37.5T324,775V707q0-37-23-56t-62-19q-34,0-54,20.5T165,707q0,60 44.5,115.5t126.5,91T532,949q156,0 232.5-72T841,686V124q0-37 13.5-52.5T890,56q27,0 38,12t19,24q4,6 8.5,10.5T968,107t12-6t4-17q0-24-15.5-48t-45-40.5T850-21q-69,0-105.5,34T708,119ZM117,206q0,113 100,187.5T493,468q72,0 133-14.5T735,418l-10-43q-48,19-100,32.5T512,421q-116,0-181-52.5T266,227q0-85 51.5-131T449,50q79,0 153,35.5T731,190l19-36Q687,70 593.5,24.5T396-21Q273-21 195,39.5T117,206Zm404,829q-76,0-129,48t-53,121q0,72 53,120t129,48t129-48t53-120t-53-120.5T521,1035Zm0,285q-44,0-76-33t-32-83t32-83t76-33q45,0 76,33t31,83t-31,83t-76,33Z" />
      <glyph unicode="&#xe6;" glyph-name="gid205" horiz-adv-x="1628" d="M725,376q-48,19-100.5,32.5T510,422q-115,0-179.5-52.5T266,228q0-87 51.5-134T449,47q88,0 168,47T762,222l28-36Q721,90 619.5,34.5T402-21Q275-21 197,40T119,208q0,112 100,186t276,74q71,0 131-14t109-35l-10-43Zm780,198q0-35-23.5-53.5T1412,502H795v48h515q48,0 48,41q0,136-63.5,218T1126,891q-85,0-149.5-48.5T876,706T840,500q0-206 95.5-315.5T1182,75q106,0 182,58t96,143q10,22 26,21q11,0 16-7t5-18q-8-82-57-148.5T1321.5,18T1142-21q-137,0-236,58T754.5,201T702,448V690q0,103-51,156.5T505,900q-93,0-137-38.5T324,771V709q0-36-23-56t-61-20q-33,0-52.5,20.5T168,708q0,60 43.5,115T335,913t189,35q133,0 202.5-60T815,724H786q53,102 145,163t211,61q106,0 188-47.5T1458.5,769T1505,574Z" />
      <glyph unicode="&#xe7;" glyph-name="gid223" horiz-adv-x="984" d="M910,705q0-37-22.5-62T828,618q-36,0-57,21.5T750,698v30q0,72-56.5,117.5T538,891q-91,0-160.5-49t-109-137T229,501q0-135 46.5-229.5T402.5,128T587,79q105,0 181,53.5T867,267q7,14 13.5,19t16.5,5q11,0 16-8.5t4-19.5q-9-80-59-144.5T728,16.5T547-21Q411-21 308.5,37T150,201.5T94,451q0,139 58,252T315,882.5T561,949q108,0 186.5-34T868,825t42-120ZM517,11h54L489-143l-30,11q13,1 27.5,2t31.5,1q84,0 133-40.5T700-275q0-70-51-113T513-431q-73,0-122,31.5T339-320q-1,13 6,20.5t16,8.5q11,0 18.5-5T391-310q10-39 42-55.5T503-382q92,0 92,105q0,46-25,74.5T496-174H460q-19,0-24,11.5t3,26.5L517,11Z" />
      <glyph unicode="&#xe8;" glyph-name="gid225" horiz-adv-x="1016" d="M925,577q0-38-23-57.5T833,500H178v51H729q48,0 48,41q0,136-67,217.5T530,891q-90,0-158-49T266,705T228,501q0-204 100-313T586,79q110,0 189,54.5T877,270q7,14 13.5,19t15.5,5q12,0 17-9t4-21q-8-79-59.5-144T733,16.5T546-22Q410-22 307.5,36.5T149,201.5T93,451q0,141 56,253.5T307,883t240,66q112,0 197.5-47t133-131T925,577ZM482,1259l118-188q5-8 7-16.5t-6-14.5q-5-6-14-5t-18,5L392,1184q-32,24-52.5,46.5T316,1280q-4,25 11,46t45,24q35,5 59.5-20.5T482,1259Z" />
      <glyph unicode="&#xe9;" glyph-name="gid224" horiz-adv-x="1016" d="M925,577q0-38-23-57.5T833,500H178v51H729q48,0 48,41q0,136-67,217.5T530,891q-90,0-158-49T266,705T228,501q0-204 100-313T586,79q110,0 189,54.5T877,270q7,14 13.5,19t15.5,5q12,0 17-9t4-21q-8-79-59.5-144T733,16.5T546-22Q410-22 307.5,36.5T149,201.5T93,451q0,141 56,253.5T307,883t240,66q112,0 197.5-47t133-131T925,577ZM633,1259q26,45 51,70.5t59,20.5q30-3 45-24t12-46q-4-27-24.5-49.5T722,1184L545,1040q-7-4-15.5-5t-15.5,5q-8,6-5.5,14.5T516,1071l117,188Z" />
      <glyph unicode="&#xea;" glyph-name="gid226" horiz-adv-x="1016" d="M925,577q0-38-23-57.5T833,500H178v51H729q48,0 48,41q0,136-67,217.5T530,891q-90,0-158-49T266,705T228,501q0-204 100-313T586,79q110,0 189,54.5T877,270q7,14 13.5,19t15.5,5q12,0 17-9t4-21q-8-79-59.5-144T733,16.5T546-22Q410-22 307.5,36.5T149,201.5T93,451q0,141 56,253.5T307,883t240,66q112,0 197.5-47t133-131T925,577ZM561,1223H518l226-179q11-7 21.5-8.5T783,1039q6,5 6,14t-9,20L595,1300q-14,16-26,24.5t-29,8.5t-30-8.5T483,1300L299,1073q-10-11-9.5-20t6.5-14q8-5 18-3.5t21,8.5l226,179Z" />
      <glyph unicode="&#xeb;" glyph-name="gid227" horiz-adv-x="1016" d="M925,577q0-38-23-57.5T833,500H178v51H729q48,0 48,41q0,136-67,217.5T530,891q-90,0-158-49T266,705T228,501q0-204 100-313T586,79q110,0 189,54.5T877,270q7,14 13.5,19t15.5,5q12,0 17-9t4-21q-8-79-59.5-144T733,16.5T546-22Q410-22 307.5,36.5T149,201.5T93,451q0,141 56,253.5T307,883t240,66q112,0 197.5-47t133-131T925,577ZM366,1062q-40,0-65,26.5T276,1155t25,66.5t65,26.5q41,0 65-26.5t24-67.5q0-39-24-65.5T366,1062Zm348,0q-40,0-65,26.5T624,1155t25,66.5t65,26.5q42,0 66-26.5t24-67.5q0-39-24-65.5T714,1062Z" />
      <glyph unicode="&#xec;" glyph-name="gid229" horiz-adv-x="573" d="M371,904V115q0-23 11.5-35.5T415,62l53-10q15-4 23.5-10.5T500,24T490.5,6.5T465,0H135q-16,0-25,6.5T101,24q0,10 8,16.5T132,51l56,11q21,5 32.5,17T232,114V786q0,19-7.5,28T200,824l-83,1q-15,2-22,7t-7,14t7.5,15.5T120,874l155,50q23,8 37.5,11t26.5,3q15,0 23.5-8.5T371,904ZM204,1259l118-188q5-8 7-16.5t-6-14.5q-5-6-14-5t-18,5L114,1184q-32,24-52.5,46.5T38,1280q-4,25 11,46t45,24q35,5 59.5-20.5T204,1259Z" />
      <glyph unicode="&#xed;" glyph-name="gid228" horiz-adv-x="573" d="M371,904V115q0-23 11.5-35.5T415,62l53-10q15-4 23.5-10.5T500,24T490.5,6.5T465,0H135q-16,0-25,6.5T101,24q0,10 8,16.5T132,51l56,11q21,5 32.5,17T232,114V786q0,19-7.5,28T200,824l-83,1q-15,2-22,7t-7,14t7.5,15.5T120,874l155,50q23,8 37.5,11t26.5,3q15,0 23.5-8.5T371,904Zm-16,355q26,45 51,70.5t59,20.5q30-3 45-24t12-46q-4-27-24.5-49.5T444,1184L267,1040q-7-4-15.5-5t-15.5,5q-8,6-5.5,14.5T238,1071l117,188Z" />
      <glyph unicode="&#xee;" glyph-name="gid230" horiz-adv-x="573" d="M371,904V115q0-23 11.5-35.5T415,62l53-10q15-4 23.5-10.5T500,24T490.5,6.5T465,0H135q-16,0-25,6.5T101,24q0,10 8,16.5T132,51l56,11q21,5 32.5,17T232,114V786q0,19-7.5,28T200,824l-83,1q-15,2-22,7t-7,14t7.5,15.5T120,874l155,50q23,8 37.5,11t26.5,3q15,0 23.5-8.5T371,904Zm-68,319H264l204-179q10-7 19.5-8.5T503,1039q5,5 5,14t-8,20L334,1300q-13,16-24,24.5t-26,8.5t-27-8.5T233,1300L67,1073q-9-11-8.5-20t6.5-14q7-5 16-3.5t19,8.5l203,179Z" />
      <glyph unicode="&#xef;" glyph-name="gid231" horiz-adv-x="573" d="M371,904V115q0-23 11.5-35.5T415,62l53-10q15-4 23.5-10.5T500,24T490.5,6.5T465,0H135q-16,0-25,6.5T101,24q0,10 8,16.5T132,51l56,11q21,5 32.5,17T232,114V786q0,19-7.5,28T200,824l-83,1q-15,2-22,7t-7,14t7.5,15.5T120,874l155,50q23,8 37.5,11t26.5,3q15,0 23.5-8.5T371,904ZM121,1062q-32,0-52,26.5T49,1155t20,66.5t52,26.5q33,0 52.5-26.5T193,1154q0-39-19.5-65.5T121,1062Zm279,0q-32,0-52,26.5T328,1155t20,66.5t52,26.5q33,0 52.5-26.5T472,1154q0-39-19.5-65.5T400,1062Z" />
      <glyph unicode="&#xf0;" glyph-name="gid208" horiz-adv-x="1143" d="M1050,529q0-174-60-298T822,41.5T569-24Q426-24 319,40T152.5,216.5T93,476q0,129 55.5,237T305,885.5T542,950q82,0 158-31t135.5-97T927,652l-13-6Q875,830 799,977T610.5,1229.5T352,1396q-19,9-25,18t-3,20q4,13 15.5,17.5T372,1452q147-42 270-132t215-214T999.5,834.5T1050,529ZM241,501q0-126 44.5-229t125-162.5T597,50q79,0 152.5,43T870,223t47,220q0,131-52.5,228T729,822.5T555,877q-94,0-165-45T280,703T241,501Zm112,595q-6,12-2,23t17,17l523,258q15,7 25.5,3.5T933,1383q13-26-17-40L393,1085q-14-6-24.5-2.5T353,1096Z" />
      <glyph unicode="&#xf1;" glyph-name="gid232" horiz-adv-x="1188" d="M372,899V115q0-23 11.5-36T416,62l52-10q31-8 31-27q0-25-36-25H135q-17,0-26,6.5T100,24q0,10 8,16.5T132,51l56,11q21,5 32.5,17T232,114V784q0,20-7.5,29T200,823l-83,1q-16,1-22.5,6.5T88,845t7,15.5T120,873l146,50q25,8 41,12t27,4q19,0 28.5-10.5T372,899ZM346,698l-32,31l48,41q111,96 191,137.5T711,949q117,0 181-77t80-210l66-542q3-26 14.5-40T1087,61l48-10q16-4 24-10.5t8-16.5q0-11-8.5-17.5T1132,0H801q-36,0-36,25q0,19 30,27l56,10q23,4 36,18.5T897,120L831,639q-14,111-59,167T643,862q-53,0-114-31T392,736l-46-38Zm384,349q-40,0-74,17.5T593.5,1105t-56,41T481,1164q-31,0-47.5-23.5T415,1070q-3-26-26-26q-26,0-26,33q0,92 35,137.5t95,45.5q41,0 74.5-17.5t62-40.5t56-41t56.5-18q32,0 48,24t18,70q3,27 26,27q25,0 25-34q0-92-34.5-137.5T730,1047Z" />
      <glyph unicode="&#xf2;" glyph-name="gid235" horiz-adv-x="1141" d="M572,948q139,0 246.5-62T987,714.5T1048,463q0-140-61-249.5T818,41T568-22Q429-22 322,40.5t-168,172T93,464q0,141 61,250T322.5,885.5T572,948ZM641,45q99,13 162,73.5T890,278t5,228q-21,133-76,221.5t-137.5,128T499,881q-98-12-161.5-72.5T250,649t-4-229q20-132 75.5-220.5T459,71.5T641,45ZM513,1259l118-188q5-8 7-16.5t-6-14.5q-5-6-14-5t-18,5L423,1184q-32,24-52.5,46.5T347,1280q-4,25 11,46t45,24q35,5 59.5-20.5T513,1259Z" />
      <glyph unicode="&#xf3;" glyph-name="gid234" horiz-adv-x="1141" d="M572,948q139,0 246.5-62T987,714.5T1048,463q0-140-61-249.5T818,41T568-22Q429-22 322,40.5t-168,172T93,464q0,141 61,250T322.5,885.5T572,948ZM641,45q99,13 162,73.5T890,278t5,228q-21,133-76,221.5t-137.5,128T499,881q-98-12-161.5-72.5T250,649t-4-229q20-132 75.5-220.5T459,71.5T641,45Zm23,1214q26,45 51,70.5t59,20.5q30-3 45-24t12-46q-4-27-24.5-49.5T753,1184L576,1040q-7-4-15.5-5t-15.5,5q-8,6-5.5,14.5T547,1071l117,188Z" />
      <glyph unicode="&#xf4;" glyph-name="gid236" horiz-adv-x="1141" d="M572,948q139,0 246.5-62T987,714.5T1048,463q0-140-61-249.5T818,41T568-22Q429-22 322,40.5t-168,172T93,464q0,141 61,250T322.5,885.5T572,948ZM641,45q99,13 162,73.5T890,278t5,228q-21,133-76,221.5t-137.5,128T499,881q-98-12-161.5-72.5T250,649t-4-229q20-132 75.5-220.5T459,71.5T641,45ZM592,1223H549l226-179q11-7 21.5-8.5T814,1039q6,5 6,14t-9,20L626,1300q-14,16-26,24.5t-29,8.5t-30-8.5T514,1300L330,1073q-10-11-9.5-20t6.5-14q8-5 18-3.5t21,8.5l226,179Z" />
      <glyph unicode="&#xf5;" glyph-name="gid237" horiz-adv-x="1141" d="M572,948q139,0 246.5-62T987,714.5T1048,463q0-140-61-249.5T818,41T568-22Q429-22 322,40.5t-168,172T93,464q0,141 61,250T322.5,885.5T572,948ZM641,45q99,13 162,73.5T890,278t5,228q-21,133-76,221.5t-137.5,128T499,881q-98-12-161.5-72.5T250,649t-4-229q20-132 75.5-220.5T459,71.5T641,45Zm48,1002q-40,0-74,17.5T552.5,1105t-56,41T440,1164q-31,0-47.5-23.5T374,1070q-3-26-26-26q-26,0-26,33q0,92 35,137.5t95,45.5q41,0 74.5-17.5t62-40.5t56-41t56.5-18q32,0 48,24t18,70q3,27 26,27q25,0 25-34q0-92-34.5-137.5T689,1047Z" />
      <glyph unicode="&#xf6;" glyph-name="gid238" horiz-adv-x="1141" d="M572,948q139,0 246.5-62T987,714.5T1048,463q0-140-61-249.5T818,41T568-22Q429-22 322,40.5t-168,172T93,464q0,141 61,250T322.5,885.5T572,948ZM641,45q99,13 162,73.5T890,278t5,228q-21,133-76,221.5t-137.5,128T499,881q-98-12-161.5-72.5T250,649t-4-229q20-132 75.5-220.5T459,71.5T641,45ZM396,1062q-40,0-65,26.5T306,1155t25,66.5t65,26.5q41,0 65-26.5t24-67.5q0-39-24-65.5T396,1062Zm348,0q-40,0-65,26.5T654,1155t25,66.5t65,26.5q42,0 66-26.5t24-67.5q0-39-24-65.5T744,1062Z" />
      <glyph unicode="&#xf7;" glyph-name="gid122" horiz-adv-x="1102" d="M523,977q-19,0-35,9.5T462,1011t-10,32q0,19 10,34t26,24t35,9q20,0 36-9t25.5-24t9.5-34q0-17-9.5-32T559,986.5T523,977ZM147,682q0,17 13.5,27T192,719H928q17,0 29.5-10T970,682q0-18-12.5-28.5T928,643H191q-17,0-30.5,10.5T147,682ZM523,259q-19,0-35,9.5T462,293t-10,32q0,19 10,34t26,24t35,9q20,0 36-9t25.5-24t9.5-34q0-17-9.5-32T559,268.5T523,259Z" />
      <glyph unicode="&#xf8;" glyph-name="gid209" horiz-adv-x="1137" d="M122-33q-9,6-9.5,16T120,3L259,166l14,11L834,781l8,11L977,948q8,10 18,11.5t20-5.5q8-7 9-16.5t-7-19.5L878,756l-13-9L307,145l-9-12L160-28q-18-20-38-5ZM572,948q139,0 246.5-62T987,714.5T1048,463q0-140-61-249.5T818,41T568-22Q429-22 322,40.5t-168,172T93,464q0,141 61,250T322.5,885.5T572,948ZM641,45q99,13 162,73.5T890,278t5,228q-21,133-76,221.5t-137.5,128T499,881q-98-12-161.5-72.5T250,649t-4-229q20-132 75.5-220.5T459,71.5T641,45Z" />
      <glyph unicode="&#xf9;" glyph-name="gid240" horiz-adv-x="1170" d="M821,88v81l-3,8V783q0,20-7.5,29T786,822l-83,1q-16,2-22.5,7T674,844t7,16t25,12l146,50q25,8 41,12t27,4q19,0 28.5-10t9.5-30V115q0-23 11.5-36T1002,62l53-10q16-4 24.5-10.5T1088,24t-9-17.5T1052,0H899q-39,0-58.5,21T821,88ZM201,266V783q0,20-7.5,29T169,822l-83,1q-16,2-22.5,7T57,844t6.5,16T88,872l147,50q25,9 41,12.5t26,3.5q20,0 29.5-10t9.5-30V289q0-112 55-167.5T541,66q55,0 119,30t142,95l46,39l32-31l-48-42Q720,59 636,19T473-21Q350-21 275.5,55.5T201,266Zm301,993l118-188q5-8 7-16.5t-6-14.5q-5-6-14-5t-18,5L412,1184q-32,24-52.5,46.5T336,1280q-4,25 11,46t45,24q35,5 59.5-20.5T502,1259Z" />
      <glyph unicode="&#xfa;" glyph-name="gid239" horiz-adv-x="1170" d="M821,88v81l-3,8V783q0,20-7.5,29T786,822l-83,1q-16,2-22.5,7T674,844t7,16t25,12l146,50q25,8 41,12t27,4q19,0 28.5-10t9.5-30V115q0-23 11.5-36T1002,62l53-10q16-4 24.5-10.5T1088,24t-9-17.5T1052,0H899q-39,0-58.5,21T821,88ZM201,266V783q0,20-7.5,29T169,822l-83,1q-16,2-22.5,7T57,844t6.5,16T88,872l147,50q25,9 41,12.5t26,3.5q20,0 29.5-10t9.5-30V289q0-112 55-167.5T541,66q55,0 119,30t142,95l46,39l32-31l-48-42Q720,59 636,19T473-21Q350-21 275.5,55.5T201,266Zm452,993q26,45 51,70.5t59,20.5q30-3 45-24t12-46q-4-27-24.5-49.5T742,1184L565,1040q-7-4-15.5-5t-15.5,5q-8,6-5.5,14.5T536,1071l117,188Z" />
      <glyph unicode="&#xfb;" glyph-name="gid241" horiz-adv-x="1170" d="M821,88v81l-3,8V783q0,20-7.5,29T786,822l-83,1q-16,2-22.5,7T674,844t7,16t25,12l146,50q25,8 41,12t27,4q19,0 28.5-10t9.5-30V115q0-23 11.5-36T1002,62l53-10q16-4 24.5-10.5T1088,24t-9-17.5T1052,0H899q-39,0-58.5,21T821,88ZM201,266V783q0,20-7.5,29T169,822l-83,1q-16,2-22.5,7T57,844t6.5,16T88,872l147,50q25,9 41,12.5t26,3.5q20,0 29.5-10t9.5-30V289q0-112 55-167.5T541,66q55,0 119,30t142,95l46,39l32-31l-48-42Q720,59 636,19T473-21Q350-21 275.5,55.5T201,266Zm381,957H539l226-179q11-7 21.5-8.5T804,1039q6,5 6,14t-9,20L616,1300q-14,16-26,24.5t-29,8.5t-30-8.5T504,1300L320,1073q-10-11-9.5-20t6.5-14q8-5 18-3.5t21,8.5l226,179Z" />
      <glyph unicode="&#xfc;" glyph-name="gid242" horiz-adv-x="1170" d="M821,88v81l-3,8V783q0,20-7.5,29T786,822l-83,1q-16,2-22.5,7T674,844t7,16t25,12l146,50q25,8 41,12t27,4q19,0 28.5-10t9.5-30V115q0-23 11.5-36T1002,62l53-10q16-4 24.5-10.5T1088,24t-9-17.5T1052,0H899q-39,0-58.5,21T821,88ZM201,266V783q0,20-7.5,29T169,822l-83,1q-16,2-22.5,7T57,844t6.5,16T88,872l147,50q25,9 41,12.5t26,3.5q20,0 29.5-10t9.5-30V289q0-112 55-167.5T541,66q55,0 119,30t142,95l46,39l32-31l-48-42Q720,59 636,19T473-21Q350-21 275.5,55.5T201,266Zm185,796q-40,0-65,26.5T296,1155t25,66.5t65,26.5q41,0 65-26.5t24-67.5q0-39-24-65.5T386,1062Zm348,0q-40,0-65,26.5T644,1155t25,66.5t65,26.5q42,0 66-26.5t24-67.5q0-39-24-65.5T734,1062Z" />
      <glyph unicode="&#xfd;" glyph-name="gid243" horiz-adv-x="1073" d="M584,93L516-71L154,800q-17,43-36.5,57T48,879q-19,4-25.5,10.5T16,907t9,18t25,7H408q17,0 26-6.5t9-18.5q0-10-7-17t-27-10l-47-7q-51-8-59.5-28.5T316,768L584,93ZM430-232L528,14l19,39L829,763q23,56 14.5,78.5T782,872l-47,7q-19,3-27,10t-8,18q0,12 9.5,18.5T736,932h287q17,0 26-7t9-18q0-10-7-17t-27-11q-51-9-72.5-26.5T911,787L502-234q-40-99-79-154t-83-76T239-485q-88,0-137.5,46T52-330q0,45 19.5,69.5T125-236q31,0 49-22t23-58l5-29q2-38 20-54.5T266-416q30,0 56,16t52.5,56T430-232ZM668,1259q26,45 51,70.5t59,20.5q30-3 45-24t12-46q-4-27-24.5-49.5T757,1184L580,1040q-7-4-15.5-5t-15.5,5q-8,6-5.5,14.5T551,1071l117,188Z" />
      <glyph unicode="&#xfe;" glyph-name="gid207" horiz-adv-x="1167" d="M341,1436V-354q0-23 11.5-36T385-406l83-11q16-3 24.5-9.5T501-444t-9.5-18T465-469H105q-16,0-24.5,7T72-444q0,10 8,16.5t22,9.5l56,11q21,5 32.5,17T202-355V1318q0,20-7.5,28.5T170,1357l-83,1q-15,1-22,6t-7,14q0,18 32,28l155,51q23,7 37.5,10.5T309,1471q15,0 23.5-8.5T341,1436ZM303,684l-18,45q73,104 171.5,161.5T668,948q118,0 210-59.5t144.5-165T1075,482q0-157-60.5-269.5t-162-173T627-21Q510-21 417.5,38T272,204l26,46q51-98 132.5-150.5T606,47q90,0 163,46.5T884.5,233T927,463q0,134-40.5,225.5T776,827T617,874T447.5,825.5T303,684Z" />
      <glyph unicode="&#xff;" glyph-name="gid244" horiz-adv-x="1073" d="M584,93L516-71L154,800q-17,43-36.5,57T48,879q-19,4-25.5,10.5T16,907t9,18t25,7H408q17,0 26-6.5t9-18.5q0-10-7-17t-27-10l-47-7q-51-8-59.5-28.5T316,768L584,93ZM430-232L528,14l19,39L829,763q23,56 14.5,78.5T782,872l-47,7q-19,3-27,10t-8,18q0,12 9.5,18.5T736,932h287q17,0 26-7t9-18q0-10-7-17t-27-11q-51-9-72.5-26.5T911,787L502-234q-40-99-79-154t-83-76T239-485q-88,0-137.5,46T52-330q0,45 19.5,69.5T125-236q31,0 49-22t23-58l5-29q2-38 20-54.5T266-416q30,0 56,16t52.5,56T430-232ZM401,1062q-40,0-65,26.5T311,1155t25,66.5t65,26.5q41,0 65-26.5t24-67.5q0-39-24-65.5T401,1062Zm348,0q-40,0-65,26.5T659,1155t25,66.5t65,26.5q42,0 66-26.5t24-67.5q0-39-24-65.5T749,1062Z" />
      <glyph unicode="&#x2013;" glyph-name="gid93" horiz-adv-x="993" d="M73,518q0,18 8.5,28.5T107,557H886q19,0 26.5-10.5T920,518q0-17-7.5-27.5T886,480H107q-17,0-25.5,10.5T73,518Z" />
      <glyph unicode="&#x2014;" glyph-name="gid94" horiz-adv-x="1588" d="M73,518q0,18 8.5,28.5T107,557H1481q19,0 26.5-10.5T1515,518t-7.5-28T1481,480H107q-17,0-25.5,10T73,518Z" />
      <glyph unicode="&#x2018;" glyph-name="gid72" horiz-adv-x="370" d="M193,1229q54,0 82.5-28.5T304,1129q0-46-34-76.5T187,1022q-58,0-96,43.5T53,1207q0,95 38,159t89,98.5t90,41.5q16,2 25.5-3t10.5-15t-7-19t-32-19q-42-17-73.5-46.5T145,1340t-17-66q0-22 10.5-33.5T178,1229h15Z" />
      <glyph unicode="&#x2019;" glyph-name="gid73" horiz-adv-x="366" d="M79,1283q-55,0-83.5,29T-33,1383q0,47 34.5,77T85,1490q58,0 95.5-43T218,1306q0-96-38-160t-89-98.5T1,1007q-16-2-25,2.5T-34,1025q-2,10 6,19t32,19q42,17 73.5,46t48.5,63.5t17,66.5q0,21-10.5,32.5T93,1283H79Z" />
      <glyph unicode="&#x201a;" glyph-name="gid75" horiz-adv-x="414" d="M203,1q-55,0-83.5,28.5T91,101q0,47 34.5,77T209,208q58,0 95.5-43.5T342,23q0-95-38-159t-89-98.5T125-275q-16-3-25,2T89-258q-1,11 7,19.5T128-220q42,18 73.5,47T250-110t17,66q0,22-10.5,33.5T217,1H203Z" />
      <glyph unicode="&#x201c;" glyph-name="gid70" horiz-adv-x="717" d="M193,1229q54,0 82.5-28.5T304,1130q0-47-34-77t-83-30q-58,0-96,43T53,1207q0,95 38,159.5t89,99t90,40.5q16,2 25.5-2.5T306,1488q1-10-7-19t-32-19q-42-17-73.5-46T145,1340.5T128,1274q0-21 10.5-33t39.5-12h15Zm347,0q54,0 82.5-28.5T651,1130q0-47-34-77t-84-30q-58,0-95.5,43T400,1207q0,95 38,159.5t89,99t90,40.5q16,2 25-2.5t11-15.5q1-10-7-19t-32-19q-42-17-73.5-46T492,1340.5T475,1274q0-21 10.5-33t39.5-12h15Z" />
      <glyph unicode="&#x201d;" glyph-name="gid71" horiz-adv-x="767" d="M520,1288q-54,0-82.5,28.5T409,1388q0,47 34.5,77t82.5,30q59,0 96.5-43.5T660,1310q0-95-38-159t-89-98.5T443,1012q-16-3-25,2t-11,15q-1,11 7,19.5t32,18.5q42,18 73.5,47t48.5,63t17,66q0,22-10.5,33.5T535,1288H520Zm-346,0q-55,0-83.5,28.5T62,1388q0,47 34.5,77t83.5,30q58,0 95.5-43.5T313,1310q0-95-38-159t-89-98.5T96,1012q-16-3-25,2t-10,15q-2,11 6,19.5T99,1067q42,18 73.5,47t48.5,63t17,66q0,22-10.5,33.5T188,1288H174Z" />
      <glyph unicode="&#x201e;" glyph-name="gid76" horiz-adv-x="761" d="M549,0q-54,0-82.5,28.5T438,100q0,47 34.5,77T555,207q59,0 96.5-43.5T689,22q0-95-38-159t-89-98.5T472-276q-16-3-25,2t-11,15q-1,11 7,19.5T475-221q42,18 73.5,47T597-111t17,66q0,22-10.5,33.5T564,0H549ZM203,0q-55,0-83.5,28.5T91,100q0,47 34.5,77T209,207q58,0 95.5-43.5T342,22q0-95-38-159t-89-98.5T125-276q-16-3-25,2T89-259q-1,11 7,19.5T128-221q42,18 73.5,47T250-111t17,66q0,22-10.5,33.5T217,0H203Z" />
      <glyph unicode="&#x2022;" glyph-name="gid97" horiz-adv-x="645" d="M323,310q-48,0-88.5,25T170,401t-24,88q0,51 24,91.5T234.5,645T323,669q49,0 89-24t63-64.5T498,489q0-47-23-88t-63-66t-89-25Z" />
      <glyph unicode="&#x2039;" glyph-name="gid79" horiz-adv-x="633" d="M102,469q0,17 11,32t47,42q51,39 93.5,73.5t79,66.5t68,61T462,802q10,9 20.5,12t19.5-3q6-6 5.5-15.5T499,773q-29-45-70-97.5t-93.5-110T218,448v42q65-60 117.5-117.5t93.5-110T499,165q8-13 8.5-22.5T502,128q-9-7-19.5-4T462,136q-30,29-62,58.5t-68.5,61T253,322t-93,73q-36,27-47,42.5T102,469Z" />
      <glyph unicode="&#x203a;" glyph-name="gid80" horiz-adv-x="633" d="M531,469q0-17-11-32t-47-42q-51-39-93.5-73.5t-79-66.5t-68-61T171,136q-10-9-20.5-12T131,127q-6,6-5.5,15.5T134,165q29,45 70,97.5t93.5,110T415,490V448q-65,60-117.5,117.5T204,675.5T134,773q-8,13-8.5,22.5T131,810q9,7 19.5,4T171,802q30-29 62-58.5t68.5-61T380,616t93-73q36-27 47-42.5T531,469Z" />
    </font>
</defs>
</svg>
